<svg xmlns="http://www.w3.org/2000/svg" width="1756" height="717" viewBox="0 0 1756 717">
  <defs>
    <linearGradient id="bg-hero-vector-a" x1="44.174%" x2="49.49%" y1="45.267%" y2="52.085%">
      <stop offset="0%" stop-color="#FFF"/>
      <stop offset="100%" stop-color="#FFF" stop-opacity="0"/>
    </linearGradient>
    <linearGradient id="bg-hero-vector-b" x1="47.224%" x2="46.271%" y1="44.496%" y2="51.107%">
      <stop offset="0%" stop-color="#FFF"/>
      <stop offset="100%" stop-color="#FFF" stop-opacity="0"/>
    </linearGradient>
    <linearGradient id="bg-hero-vector-c" x1="164.906%" x2="0%" y1="88.482%" y2="43.867%">
      <stop offset="0%" stop-color="#50B1AE"/>
      <stop offset="54.372%" stop-color="#6AC9C6"/>
      <stop offset="100%" stop-color="#238FD1"/>
    </linearGradient>
  </defs>
  <g fill="none" transform="matrix(1 0 0 -1 -224 717)">
    <path fill="url(#bg-hero-vector-a)" d="M1465.5361,133.601473 C1770.55458,-3.17030363 2099.60496,39.5442095 2226,77.9973502 L1981.72123,691 L0,415.623424 L47.6735038,295.986504 C260.29287,139.373342 531.332505,130.040251 750.526848,202.89077 C956.230558,271.259524 1101.30607,296.913765 1465.5361,133.601473 Z"/>
    <path fill="#D6EFF4" d="M1465.5361,93.6014733 C1770.55458,-43.1703036 2099.60496,-0.455790527 2226,37.9973502 L2226,824 L48,824 L47.6735038,255.986504 C260.29287,99.3733416 531.332505,90.0402507 750.526848,162.89077 C956.230558,231.259524 1101.30607,256.913765 1465.5361,93.6014733 Z"/>
    <path fill="url(#bg-hero-vector-b)" d="M1550.82051,144.243749 C1888.73138,37.562774 2202.40493,110.432043 2317,160.195077 L1911.78473,743 L15,743 L106.619801,172.509798 C358.545325,37.6131891 628.818583,53.6525753 825.899106,146.05197 C1010.85186,232.765889 1147.322,271.632546 1550.82051,144.243749 Z"/>
    <path fill="url(#bg-hero-vector-c)" d="M1550.96452,104.194774 C1888.81188,-2.41182119 2202.42647,70.4066417 2317,120.13498 L2317,808 L107,808 L107.035286,132.441115 C358.913455,-2.36144128 629.13591,13.666762 826.179388,106.001734 C1011.09738,192.655194 1147.54186,231.494753 1550.96452,104.194774 Z"/>
  </g>
</svg>
