<?xml version="1.0" encoding="UTF-8"?>
<svg width="20px" height="21px" viewBox="0 0 20 21" version="1.1" xmlns="http://www.w3.org/2000/svg" xmlns:xlink="http://www.w3.org/1999/xlink">
    <!-- Generator: Sketch 64 (93537) - https://sketch.com -->
    <title>ico-rocket</title>
    <desc>Created with Sketch.</desc>
    <g id="Site" stroke="none" stroke-width="1" fill="none" fill-rule="evenodd">
        <g id="campaign-site" transform="translate(-215.000000, -578.000000)">
            <g id="hero" transform="translate(215.000000, 149.000000)">
                <g id="icons" transform="translate(0.000000, 427.000000)" fill="#32B1AE" fill-rule="nonzero">
                    <g id="ico-rocket" transform="translate(0.000000, 2.000033)">
                        <path d="M8.75010359,17.9999619 C8.86854203,17.9955673 8.98237233,17.9676133 9.08469752,17.9213488 L12.1699258,16.3778954 C12.627078,16.1498686 12.9982929,15.5497724 12.9982929,15.0385431 L12.9982929,11.774879 C15.2669643,10.3276169 16.999382,8.3871918 16.999382,5.17821508 C17.0023117,4.3906193 17.0023117,3.60302352 16.784966,2.59667826 C16.7477957,2.42382711 16.5768977,2.25292908 16.4034972,2.2158198 C15.3973351,2 14.6095562,2 13.8251953,2 C10.5991898,2 8.66465458,3.72509354 7.22038312,6 L3.96367702,6 C3.45281398,6.00047874 2.85253465,6.37108333 2.62347025,6.82762521 L1.07861309,9.91550847 C1.032257,10.0177421 1.00427245,10.1315419 1,10.2499803 C1,10.6639198 1.33624187,10.9999175 1.75018132,10.9999785 L4.99425317,10.9999785 L4.2919233,11.7021253 C3.93676058,12.057166 3.88579634,12.7101795 4.2919233,13.1161844 L5.88267879,14.707001 C6.23131077,15.0566095 6.88755921,15.1181328 7.29759241,14.707001 L7.99992228,14.0048542 L7.99992228,17.2499636 C8.00004435,17.6639031 8.33613363,17.9999619 8.75010359,17.9999619 Z M13.0012226,7.24999344 C12.311466,7.2498349 11.7515308,6.68977764 11.7515308,5.99999046 C11.7515308,5.31011174 12.3116491,4.74999344 13.0015278,4.74999344 C13.691437,4.74999344 14.2515308,5.31011174 14.2515308,5.99999046 C14.2511281,6.68980815 13.6910708,7.24974334 13.0012226,7.24999344 Z" id=""></path>
                    </g>
                </g>
                <text id="Servicelovers-is-a-u" font-family="Lato-Regular, Lato" font-size="16" font-weight="normal" line-spacing="25" fill="#666981">
                    <tspan x="1" y="164">Servicelovers is a unique platform for restaurant owners and managers, who </tspan>
                    <tspan x="1" y="189">want to create and maintain a winning service culture.</tspan>
                    <tspan x="1" y="214"></tspan>
                    <tspan x="1" y="239">Servicelovers allow you to collect customer reviews every day, offering </tspan>
                    <tspan x="1" y="264">detailed real-time feedback on what customers really think of your service.</tspan>
                    <tspan x="1" y="289"></tspan>
                    <tspan x="1" y="314">Use these valuable insights to continuously monitor, discuss and optimize </tspan>
                    <tspan x="1" y="339">the customer experience in your restaurant.</tspan>
                    <tspan x="1" y="364"></tspan>
                    <tspan x="1" y="389" font-family="Lato-Bold, Lato" font-weight="bold">Restaurants using Servicelovers experience:</tspan>
                    <tspan x="1" y="414" font-family="Lato-Bold, Lato" font-weight="bold"></tspan>
                    <tspan x="1" y="439" font-family="Lato-Bold, Lato" font-weight="bold">	</tspan>
                    <tspan x="29" y="439">growing revenue</tspan>
                    <tspan x="1" y="464">	improved customer loyalty</tspan>
                    <tspan x="1" y="489">	better employee retention</tspan>
                    <tspan x="1" y="514"></tspan>
                    <tspan x="1" y="539"></tspan>
                </text>
            </g>
        </g>
    </g>
</svg>