<?xml version="1.0" encoding="UTF-8"?>
<svg width="26px" height="26px" viewBox="0 0 26 26" version="1.1" xmlns="http://www.w3.org/2000/svg" xmlns:xlink="http://www.w3.org/1999/xlink">
    <!-- Generator: Sketch 64 (93537) - https://sketch.com -->
    <title>ico-plus</title>
    <desc>Created with Sketch.</desc>
    <g id="ico-plus" stroke="none" stroke-width="1" fill="none" fill-rule="evenodd">
        <path d="M13.5714286,21 C14.2024972,21 14.7142857,20.4882115 14.7142857,19.8571429 L14.7142857,14.7142857 L19.8571429,14.7142857 C20.4882115,14.7142857 21,14.2024972 21,13.5714286 L21,12.4285714 C21,11.7975028 20.4882115,11.2857143 19.8571429,11.2857143 L14.7142857,11.2857143 L14.7142857,6.14285714 C14.7142857,5.5117885 14.2024972,5 13.5714286,5 L12.4285714,5 C11.7975028,5 11.2857143,5.5117885 11.2857143,6.14285714 L11.2857143,11.2857143 L6.14285714,11.2857143 C5.5117885,11.2857143 5,11.7975028 5,12.4285714 L5,13.5714286 C5,14.2024972 5.5117885,14.7142857 6.14285714,14.7142857 L11.2857143,14.7142857 L11.2857143,19.8571429 C11.2857143,20.4882115 11.7975028,21 12.4285714,21 L13.5714286,21 Z" fill="#32B1AE" fill-rule="nonzero"></path>
    </g>
</svg>