<?xml version="1.0" encoding="UTF-8"?>
<svg width="20px" height="21px" viewBox="0 0 20 21" version="1.1" xmlns="http://www.w3.org/2000/svg" xmlns:xlink="http://www.w3.org/1999/xlink">
    <!-- Generator: Sketch 64 (93537) - https://sketch.com -->
    <title>ico-handShake</title>
    <desc>Created with Sketch.</desc>
    <g id="Site" stroke="none" stroke-width="1" fill="none" fill-rule="evenodd">
        <g id="campaign-site" transform="translate(-215.000000, -625.000000)" fill="#32B1AE" fill-rule="nonzero">
            <g id="hero" transform="translate(215.000000, 149.000000)">
                <g id="icons" transform="translate(0.000000, 427.000000)">
                    <g id="ico-handShake" transform="translate(0.000000, 49.000029)">
                        <path d="M15.9968491,12.0468558 L15.9968491,6 L14.2905848,4.29376151 C14.1062286,4.10626195 13.8499731,4 13.5843487,4 L10.8999679,4 C10.6499685,4 10.409338,4.09374978 10.2249817,4.26251158 L7.15312015,7.07500488 L7.14372076,7.08748654 L7.14372076,7.08748654 C6.6249842,7.57500368 6.63435308,8.35310852 7.07810812,8.83748236 C7.47498828,9.27186853 8.3093674,9.38749936 8.83121674,8.92186327 L8.84372891,8.91560718 L8.84372891,8.91560718 L11.3406102,6.62810653 C11.5437347,6.44375028 11.8624595,6.45623194 12.0468463,6.65935645 C12.2343458,6.86248097 12.2187209,7.17812353 12.0155964,7.36562308 L11.1999855,8.11247799 L15.7499624,11.8062253 C15.8405994,11.8812373 15.921837,11.9624749 15.9968491,12.0468558 Z M10.2124695,15.2655981 L10.2187256,15.2593421 L10.7781115,15.7437159 C11.274967,16.1499649 12.0093403,16.0718401 12.4124765,15.5749846 L13.3937059,14.3687192 L13.5624677,14.5062311 C13.9905977,14.853093 14.6218523,14.7905932 14.9687143,14.3593503 L15.2655886,13.9937201 C15.6155939,13.5624772 15.5499507,12.9343659 15.1218512,12.5843606 L10.4562129,8.79686356 L9.5187151,9.65623651 C8.59061673,10.5030973 7.16874512,10.4218597 6.34062209,9.51872464 C5.49999046,8.59999514 5.56559952,7.17812353 6.47810345,6.34063163 L9.03434125,4 L6.4156036,4 C6.14997923,4 5.89686704,4.10626195 5.70936749,4.29376151 L3.99999046,6 L3.99999046,12.9968658 L4.571858,12.9968658 L7.39997625,15.5562163 C8.25623642,16.2530836 9.51560231,16.1218583 10.2124695,15.2655981 Z M19.9999595,14.0030889 L19.9999595,6.00625132 L16.9999595,6.00625132 L16.9999595,13.0030913 C16.9999595,13.5562211 17.4468273,14.0030889 17.9999595,14.0030889 L19.9999595,14.0030889 Z M2,13.9999762 C2.55312502,13.9999762 3,13.5531083 3,12.9999785 L3,6.00625132 L0,6.00625132 L0,13.9999762 L2,13.9999762 Z M18.4999559,13.0030925 C18.2249627,13.0030925 17.9999559,12.7781163 17.9999559,12.5030925 C17.9999559,12.2280993 18.2249627,12.0030925 18.4999559,12.0030925 C18.7749491,12.0030925 18.9999559,12.2280993 18.9999559,12.5030925 C18.9999559,12.7781163 18.7749491,13.0030925 18.4999559,13.0030925 Z M1.49999642,13.0030925 C1.22500318,13.0030925 0.999996424,12.7781163 0.999996424,12.5030925 C0.999996424,12.2249865 1.22500318,12.0030925 1.49999642,12.0030925 C1.77498966,12.0030925 1.99999642,12.2280993 1.99999642,12.5030925 C1.99999642,12.7781163 1.77498966,13.0030925 1.49999642,13.0030925 Z" id=""></path>
                    </g>
                </g>
            </g>
        </g>
    </g>
</svg>