<?xml version="1.0" encoding="UTF-8"?>
<svg width="16px" height="13px" viewBox="0 0 16 13" version="1.1" xmlns="http://www.w3.org/2000/svg" xmlns:xlink="http://www.w3.org/1999/xlink">
    <!-- Generator: Sketch 64 (93537) - https://sketch.com -->
    <title>ico-login</title>
    <desc>Created with Sketch.</desc>
    <g id="Page-1" stroke="none" stroke-width="1" fill="none" fill-rule="evenodd">
        <g id="Homepage" transform="translate(-962.000000, -37.000000)" fill="#666981" fill-rule="nonzero">
            <g id="menu" transform="translate(430.000000, 34.000000)">
                <path d="M545.046846,15 C546.599577,15 547.859339,13.7402374 547.859339,12.1875067 L547.859339,6.56252012 C547.859339,5.00978944 546.599577,3.75002682 545.046846,3.75002682 L542.585914,3.75002682 C542.392567,3.75002682 542.234353,3.90824101 542.234353,4.10158848 L542.234353,5.27346069 C542.234353,5.46680816 542.392567,5.62502235 542.585914,5.62502235 L545.046846,5.62502235 C545.565405,5.62502235 545.984344,6.04396094 545.984344,6.56252012 L545.984344,12.1875067 C545.984344,12.7060659 545.565405,13.1250045 545.046846,13.1250045 L542.585914,13.1250045 C542.392567,13.1250045 542.234353,13.2832187 542.234353,13.4765661 L542.234353,14.6484383 C542.234353,14.8417858 542.392567,15 542.585914,15 L545.046846,15 Z M538.748033,15.0292968 L543.669896,10.1074335 C543.942351,9.83203213 543.942351,9.38674358 543.669896,9.11134216 L538.748033,4.1894789 C538.308581,3.75002682 537.546864,4.05764328 537.546864,4.68752459 L537.546864,7.50001788 L533.562498,7.50001788 C533.172857,7.50001788 532.859375,7.81349942 532.859375,8.20314121 L532.859375,11.0156345 C532.859375,11.4052763 533.172857,11.7187578 533.562498,11.7187578 L537.546864,11.7187578 L537.546864,14.5312511 C537.546864,15.1611324 538.308581,15.4687489 538.748033,15.0292968 Z" id="ico-login"></path>
            </g>
        </g>
    </g>
</svg>