<?xml version="1.0" encoding="UTF-8"?>
<svg width="250px" height="100px" viewBox="0 0 250 100" version="1.1" xmlns="http://www.w3.org/2000/svg" xmlns:xlink="http://www.w3.org/1999/xlink">
    <!-- Generator: Sketch 51 (57462) - http://www.bohemiancoding.com/sketch -->
    <title>logo_jack_and_jones</title>
    <desc>Created with Sketch.</desc>
    <defs></defs>
    <g id="Page-1" stroke="none" stroke-width="1" fill="none" fill-rule="evenodd">
        <g id="sl_web_logos-copy" transform="translate(-600.000000, -547.000000)" fill="#9B9B9B" fill-rule="nonzero">
            <g id="logos" transform="translate(270.000000, 547.000000)">
                <g id="logo_jack_and_jones" transform="translate(330.000000, 0.000000)">
                    <path d="M33.4862385,39.5325303 L39.1314985,39.5325303 L39.1314985,54.99226 C39.1314985,58.8183411 36.0152905,61.3918546 31.9755352,61.3918546 C27.8409786,61.3918546 25,59.0700978 25,55.1196924 L25,53.7023951 L30.0275229,53.7023951 L30.0275229,54.9860438 C30.0065327,55.4647899 30.1799903,55.9312751 30.5072724,56.2762502 C30.8345544,56.6212254 31.286914,56.8143891 31.7584098,56.8105032 C32.2313038,56.8236471 32.6878529,56.6341454 33.0164973,56.2883036 C33.3451416,55.9424619 33.5156066,55.4721388 33.4862385,54.99226 L33.4862385,39.5325303 Z M55.7889908,60.8510438 L54.4617737,57.1834762 L46.440367,57.1834762 L45.0825688,60.8510438 L39.4067278,60.8510438 L48.1376147,39.5325303 L53.3363914,39.5325303 L61.7431193,60.8510438 L55.7889908,60.8510438 Z M50.5902141,46.2429357 L50.5168196,46.2429357 L47.9541284,53.0807735 L53.0122324,53.0807735 L50.5902141,46.2429357 Z M82.7859327,53.7023951 C81.3669725,58.2495573 77.0152905,61.3856384 71.9877676,61.3856384 C65.8715596,61.3856384 60.8501529,56.7421248 60.8501529,50.221314 C60.8501529,43.7005032 66,39.0010438 72.1100917,39.0010438 C77.0458716,39.0010438 81.3058104,42.0749627 82.7553517,46.5910438 L76.3333333,46.5910438 C75.3758317,45.1492251 73.7876599,44.2714202 72.0764526,44.2382059 C69.2691131,44.2382059 66.8318043,46.6532059 66.8318043,50.1964492 C66.8318043,53.7396924 69.2782875,56.1236113 72.0764526,56.1236113 C73.8270006,56.1079711 75.4522575,55.1979448 76.4006116,53.7023951 L82.7859327,53.7023951 Z M96.6574924,60.8510438 L90.7033639,52.1483411 L90.5779817,52.1483411 L90.5779817,60.8510438 L84.9327217,60.8510438 L84.9327217,39.5325303 L90.5779817,39.5325303 L90.5779817,47.719287 L90.7003058,47.719287 L96.5321101,39.5325303 L102.825688,39.5325303 L95.2079511,49.3168546 L103.29052,60.8510438 L96.6574924,60.8510438 Z M134.70948,39.5325303 L140.35474,39.5325303 L140.35474,54.99226 C140.35474,58.8183411 137.238532,61.3918546 133.195719,61.3918546 C129.061162,61.3918546 126.223242,59.0700978 126.223242,55.1196924 L126.223242,53.7023951 L131.250765,53.7023951 L131.250765,54.9860438 C131.229774,55.4647899 131.403232,55.9312751 131.730514,56.2762502 C132.057796,56.6212254 132.510156,56.8143891 132.981651,56.8105032 C133.454545,56.8236471 133.911095,56.6341454 134.239739,56.2883036 C134.568383,55.9424619 134.738848,55.4721388 134.70948,54.99226 L134.70948,39.5325303 Z M153.743119,61.3918546 C147.449541,61.3918546 142.388379,56.7483411 142.388379,50.2275303 C142.388379,43.7067194 147.458716,39.0010438 153.743119,39.0010438 C160.027523,39.0010438 165.195719,43.7036113 165.195719,50.2275303 C165.195719,56.7514492 160.036697,61.3918546 153.743119,61.3918546 Z M159.247706,50.2026654 C159.247706,46.5630708 156.779817,44.2755032 153.785933,44.2755032 C150.792049,44.2755032 148.376147,46.6532059 148.376147,50.1964492 C148.376147,53.7396924 150.782875,56.1018546 153.776758,56.1018546 C156.770642,56.1018546 159.235474,53.7396924 159.235474,50.1964492 L159.247706,50.2026654 Z M181.40367,60.8510438 L172.718654,49.1303681 L172.562691,49.1303681 L172.562691,60.8510438 L167.2263,60.8510438 L167.2263,39.5325303 L172.100917,39.5325303 L180.862385,51.3246924 L181.018349,51.3246924 L181.018349,39.5325303 L186.35474,39.5325303 L186.35474,60.8510438 L181.40367,60.8510438 Z M189.238532,60.8510438 L189.238532,39.5325303 L205.256881,39.5325303 L205.256881,44.4246924 L194.859327,44.4246924 L194.859327,47.6571248 L202.079511,47.6571248 L202.079511,52.4591519 L194.859327,52.4591519 L194.859327,55.971314 L205.256881,55.971314 L205.256881,60.8510438 L189.238532,60.8510438 Z M219.171254,46.4636113 C218.675841,44.8007735 217.474006,43.666314 215.220183,43.666314 C213.370031,43.666314 212.412844,44.5769897 212.412844,45.5809086 C212.412844,46.6469897 213.522936,47.1784762 215.281346,47.4457735 L216.825688,47.6664492 C222.256881,48.4496924 224.776758,50.0410438 224.776758,53.9665843 C224.776758,58.6100978 220.593272,61.4011789 215.470948,61.4011789 C210.629969,61.4011789 206.972477,58.6411789 206.633028,53.6868546 L212.003058,53.6868546 C212.441737,55.5749801 214.138854,56.8797209 216.045872,56.7949627 C217.804281,56.7949627 219.131498,55.9153681 219.131498,54.5664492 C219.131498,53.5936113 218.452599,52.9688816 215.706422,52.5586113 L213.330275,52.2011789 C209.134557,51.5795573 206.788991,49.5437465 206.788991,45.8482059 C206.788991,42.0314492 210.183486,39.0103681 215.489297,39.0103681 C221.134557,39.0103681 224.051988,42.3640167 224.437309,46.4698275 L219.171254,46.4636113 Z M124.125382,57.5844221 L121.159021,54.560233 L123.721713,51.9525303 L120.204893,48.3875303 L117.642202,50.995233 L113.730887,47.0199627 C113.134557,46.3983411 112.788991,46.0036113 112.776758,45.4099627 C112.773056,44.6014716 113.403673,43.9371114 114.198777,43.9118546 C114.908257,43.9118546 115.281346,44.1760438 115.816514,44.7603681 L116.40367,45.3571248 L119.83792,41.8636113 L119.360856,41.3787465 C117.981867,39.8322658 116.013454,38.9656416 113.960245,39.0010438 C109.862385,39.0010438 107.397554,42.1837465 107.397554,45.4410438 C107.397554,46.9453681 107.941896,48.4061789 109.415902,49.9136113 L114.055046,54.6348275 L113.584098,55.1134762 C112.798165,55.940233 112.33945,56.4841519 111.443425,56.4996924 C110.363914,56.5183411 109.40367,55.7817194 109.382263,54.6348275 C109.382263,53.8857735 109.688073,53.3915843 110.275229,52.7699627 L110.40367,52.6394221 L107.192661,49.3665843 L106.868502,49.6960438 C105.64526,50.8771248 104.388379,52.751314 104.388379,55.2471248 C104.388379,58.6194221 107.06422,61.3887465 111.259939,61.3887465 C113.782875,61.3887465 115.58104,60.2480708 117.30581,58.4640167 L117.562691,58.2060438 L120.547401,61.230233 L124.125382,57.5844221 Z" id="Shape"></path>
                </g>
            </g>
        </g>
    </g>
</svg>