<svg xmlns="http://www.w3.org/2000/svg" width="250" height="100" viewBox="0 0 250 100">
  <g fill="none" fill-rule="evenodd" transform="translate(55 17)">
    <path fill="#9B9B9B" fill-rule="nonzero" d="M8.6 3.4C7.1 3.4 5.9 3.8 5 4.6 4.1 5.3 3.7 6.3 3.7 7.4 3.7 8.5 4.1 9.4 5 10.2 5.9 11 7.1 11.4 8.6 11.4 10.1 11.4 11.3 11 12.2 10.2 13.1 9.5 13.5 8.6 13.5 7.5 13.5 6.3 13.1 5.4 12.2 4.7 11.3 3.8 10.1 3.4 8.6 3.4M8.6 1.2C10.9 1.2 12.8 1.7 14.3 2.6 16.1 3.8 17 5.4 17 7.4 17 9.3 16.1 10.9 14.3 12.1 12.8 13.1 10.9 13.5 8.7 13.5 6.4 13.5 4.6 13 3.1 12.1 1.3 10.9.4 9.4.4 7.3.4 5.3 1.3 3.7 3.1 2.6 4.5 1.7 6.4 1.2 8.6 1.2M34.2 2.5L34.2 8.8C34.2 10.2 33.9 11.3 33.2 12 32 13 30 13.6 26.9 13.6 24.9 13.6 23.2 13.3 22 12.8 21.1 12.4 20.5 11.9 20.2 11.2 19.9 10.6 19.7 9.8 19.7 8.8L19.7 2.5C19.7 2.3 19.6 2.1 19.5 2 19.4 1.9 19.2 1.8 18.9 1.7L18.9 1.4 24 1.4 24 1.7C23.7 1.8 23.5 1.9 23.4 2 23.3 2.1 23.2 2.3 23.2 2.5L23.2 8.2C23.2 8.9 23.3 9.4 23.4 9.7 23.5 10.1 23.8 10.3 24.1 10.6 24.8 11.1 25.8 11.3 27.1 11.3 28.4 11.3 29.4 11.1 30.1 10.6 30.4 10.4 30.7 10.1 30.8 9.7 30.9 9.3 31 8.8 31 8.2L31 2.5C31 2.3 30.9 2.1 30.8 2 30.7 1.9 30.5 1.8 30.2 1.7L30.2 1.4 35 1.4 35 1.7C34.7 1.8 34.5 1.9 34.4 2 34.2 2.1 34.2 2.3 34.2 2.5M46.1 3.6L46.1 12.2C46.1 12.4 46.2 12.6 46.3 12.7 46.4 12.8 46.6 12.9 46.9 13L46.9 13.3 41.8 13.3 41.8 13C42.1 12.9 42.3 12.8 42.4 12.7 42.5 12.6 42.6 12.4 42.6 12.2L42.6 3.6 38.4 3.6C38.1 3.6 37.9 3.7 37.8 3.8 37.7 3.9 37.5 4.1 37.5 4.3L37.2 4.3 37.2.8 37.5.8C37.6 1.1 37.7 1.2 37.8 1.3 37.9 1.4 38.1 1.5 38.4 1.5L50.2 1.5C50.5 1.5 50.7 1.4 50.8 1.4 50.9 1.3 51.1 1.1 51.1.9L51.4.9 51.4 4.4 51.1 4.4C51 4.1 50.9 4 50.8 3.9 50.7 3.8 50.5 3.7 50.2 3.7L46.1 3.7 46.1 3.6zM57.3 11.2L65.3 11.2C65.6 11.2 65.8 11.1 65.9 11.1 66 11 66.2 10.8 66.2 10.6L66.5 10.6 66.5 14 66.2 14C66.1 13.7 66 13.6 65.9 13.5 65.8 13.4 65.6 13.4 65.3 13.4L53.1 13.4 53.1 13C53.4 12.9 53.6 12.8 53.7 12.7 53.8 12.6 53.9 12.4 53.9 12.2L53.9 2.5C53.9 2.3 53.8 2.1 53.7 2 53.6 1.9 53.4 1.8 53.1 1.7L53.1 1.4 58.2 1.4 58.2 1.7C57.9 1.8 57.7 1.9 57.6 2 57.5 2.1 57.4 2.3 57.4 2.5L57.4 11.2 57.3 11.2zM72.3 8.3L72.3 11.2 81.4 11.2C81.7 11.2 81.9 11.1 82 11.1 82.1 11 82.3 10.8 82.3 10.6L82.7 10.6 82.7 14 82.3 14C82.2 13.7 82.1 13.6 82 13.5 81.9 13.4 81.7 13.3 81.4 13.3L68.1 13.3 68.1 13C68.4 12.9 68.6 12.8 68.7 12.7 68.8 12.6 68.9 12.4 68.9 12.2L68.9 2.5C68.9 2.3 68.8 2.1 68.7 2 68.6 1.9 68.4 1.8 68.1 1.7L68.1 1.4 81 1.4C81.3 1.4 81.5 1.4 81.6 1.3 81.7 1.2 81.9 1 81.9.8L82.2.8 82.2 4.3 81.9 4.3C81.8 4 81.7 3.9 81.6 3.8 81.5 3.7 81.3 3.7 81 3.7L72.3 3.7 72.3 6.3 77.7 6.3C78 6.3 78.2 6.2 78.3 6.2 78.4 6.1 78.6 5.9 78.7 5.7L79 5.7 79 9 78.7 9C78.6 8.7 78.5 8.6 78.4 8.5 78.3 8.4 78.1 8.3 77.8 8.3L72.3 8.3zM93.4 3.6L93.4 12.2C93.4 12.4 93.5 12.6 93.6 12.7 93.7 12.8 93.9 12.9 94.2 13L94.2 13.3 89.2 13.3 89.2 13C89.5 12.9 89.7 12.8 89.8 12.7 89.9 12.6 90 12.4 90 12.2L90 3.6 85.8 3.6C85.5 3.6 85.3 3.7 85.2 3.8 85.1 3.9 84.9 4.1 84.9 4.3L84.6 4.3 84.6.8 84.9.8C85 1.1 85.1 1.2 85.2 1.3 85.3 1.4 85.5 1.5 85.8 1.5L97.6 1.5C97.9 1.5 98.1 1.4 98.2 1.4 98.3 1.3 98.5 1.1 98.5.9L98.8.9 98.8 4.4 98.5 4.4C98.4 4.1 98.3 4 98.2 3.9 98.1 3.8 97.9 3.7 97.6 3.7L93.4 3.7 93.4 3.6z" transform="translate(20 52)"/>
    <polyline fill="#9B9B9B" points=".5 22.4 69.3 1 139.5 22.4 69.7 45.5"/>
    <path fill="#9B9B9B" fill-rule="nonzero" d="M0.2,23.4 L0.2,21.5 L0.5,22.5 M69.3,46.5 L0.2,23.4 L0.8,21.5 L70,44.6 L69.3,46.5 Z M70,46.5 L69.4,46.5 L69.7,45.5 L70,46.5 Z M139.8,23.4 L70,46.5 L69.4,44.6 L139.3,21.5 L139.8,23.4 Z M139.8,21.5 L139.8,23.4 L139.5,22.5 L139.8,21.5 Z M69.6,0 L139.8,21.5 L139.2,23.4 L69,1.9 L69.6,0 Z M69,0 L69.6,0 L69.3,1 L69,0 Z M0.2,21.5 L69,0 L69.6,1.9 L0.8,23.4 L0.2,21.5 Z"/>
    <path fill="#FFF" fill-rule="nonzero" d="M35.2 30.2C36.2 30.3 37.1 30.4 38.1 30.4 40.6 30.4 42.6 30.1 43.9 29.6 45.2 29.1 46.3 28.2 47.1 26.9 47.9 25.7 48.3 24.2 48.3 22.4 48.3 20 47.5 18.2 45.9 17 44.5 15.9 42.1 15.4 38.8 15.4 38.1 15.4 36.9 15.4 35.2 15.5L35.1 23.4C35.1 26.7 35.1 29 35.2 30.2M28.3 31.7L28.3 31C29.1 30.7 29.6 30.4 30 30.2 30.2 28.7 30.2 25.9 30.2 21.8 30.2 20 30.2 18.5 30.1 17.4 30 16.2 30 15.5 29.9 15.4 29.9 15.3 29.8 15.3 29.7 15.2 29.5 15.1 28.7 15 27.2 14.9L27.2 13.8C28.9 13.8 30.9 13.9 33.1 13.9L41.5 13.8C44.5 13.8 46.9 14.1 48.4 14.7 50 15.3 51.2 16.2 52.2 17.3 53.1 18.5 53.6 19.9 53.6 21.6 53.6 23.8 52.9 25.7 51.4 27.2 50 28.8 48.2 29.9 46.1 30.6 44 31.3 41.8 31.6 39.4 31.6L33 31.7C31.9 31.7 30.4 31.7 28.3 31.7M60.8 23.6C59.3 23.8 58.3 24.1 57.9 24.4 57.5 24.7 57.2 25.1 57.2 25.5 57.2 25.9 57.3 26.2 57.6 26.4 57.9 26.6 58.3 26.7 58.7 26.7 59.4 26.7 60.1 26.4 60.8 25.9M65.5 27.5L65.5 28.3 64.5 28.3C64 28.3 63.5 28.3 63 28.3 62.2 28.3 61.5 28.3 60.7 28.4L60.6 28.3 60.7 27 58.1 28.5C57.6 28.6 57.2 28.6 56.8 28.6 55.9 28.6 55.2 28.4 54.7 28 54.2 27.6 54 27 54 26.3 54 25.4 54.3 24.7 55 24.3 55.9 23.8 57.8 23.3 60.7 22.9 60.7 22.2 60.5 21.6 60.2 21.3 59.7 20.8 59 20.6 58 20.6 57.8 20.6 57.5 20.6 57.3 20.7 57.1 20.7 56.8 20.8 56.6 20.9L56 21.9 55.1 21.7 55.1 21.3 55.1 20.9 55.1 20.5C56.4 19.9 57.3 19.5 57.9 19.4 58.3 19.3 58.9 19.2 59.6 19.2 60.6 19.2 61.4 19.3 62 19.5 62.6 19.7 63.1 20 63.4 20.4 63.7 20.8 63.8 21.3 63.8 22.1 63.8 22.4 63.8 23 63.7 23.8 63.7 24.6 63.7 25.3 63.7 25.8 63.7 26.6 63.7 27.1 63.8 27.2 63.8 27.3 63.9 27.4 64 27.4 64.3 27.3 64.8 27.4 65.5 27.5"/>
    <path fill="#FFF" fill-rule="nonzero" d="M64.4,28.2 L64.4,27.4 C65.3,27.4 65.8,27.3 66,27.2 C66.1,27.1 66.2,27 66.2,26.7 C66.3,26.1 66.3,24.9 66.3,23.3 C66.3,22.5 66.3,21.8 66.3,21.2 C66.3,20.8 66.2,20.6 66.2,20.6 C66.2,20.6 66.1,20.5 66,20.5 C65.9,20.5 65.4,20.5 64.5,20.4 L64.5,19.7 C65,19.7 65.7,19.6 66.6,19.5 C67.6,19.4 68.4,19.2 69,19 L69.3,18.9 C69.4,18.9 69.5,19 69.5,19.1 L69.5,19.2 C69.5,19.4 69.5,19.8 69.5,20.6 L71.5,19.4 C71.7,19.2 72,19.1 72.3,19.1 C72.7,19 73.1,19 73.7,19 C74.6,19 75.3,19.1 75.9,19.3 C76.5,19.5 76.9,19.9 77.2,20.3 C77.5,20.7 77.6,21.3 77.6,22.2 C77.6,22.6 77.6,23 77.6,23.5 C77.6,24.5 77.5,25.4 77.5,26.2 C77.5,26.6 77.5,26.9 77.6,27.1 C77.7,27.2 77.8,27.3 77.9,27.3 C78,27.3 78.5,27.4 79.3,27.4 L79.3,28.2 L77.7,28.2 L76.7,28.2 L74.1,28.3 L74,28.2 C74.2,27 74.3,25.8 74.3,24.5 C74.3,22.9 74.2,21.9 73.9,21.5 C73.6,21 72.9,20.8 72.1,20.8 C71.5,20.8 71,20.9 70.6,21.1 C70.2,21.3 69.9,21.5 69.8,21.8 C69.7,21.9 69.7,22.2 69.7,22.8 C69.7,25.1 69.7,26.4 69.7,26.7 C69.7,27 69.8,27.2 69.9,27.3 C70.1,27.4 70.6,27.5 71.6,27.5 L71.6,28.3 C70.1,28.3 68.9,28.2 67.9,28.2 C67.1,28.2 66,28.2 64.4,28.2"/>
    <path fill="#FFF" fill-rule="nonzero" d="M79.8,25.2 C79.8,26 79.9,26.5 80,26.6 C80.2,26.9 80.5,27.1 81,27.3 C81.5,27.5 82.1,27.6 82.8,27.6 C83.6,27.6 84.2,27.5 84.7,27.2 C85.1,26.9 85.3,26.6 85.3,26.2 C85.3,25.8 85.2,25.5 84.9,25.3 C84.6,25.1 84,24.9 83,24.7 C81.5,24.5 80.6,24.2 80.1,24 C79.7,23.8 79.3,23.5 79,23.2 C78.7,22.8 78.6,22.4 78.6,21.9 C78.6,21.3 78.8,20.8 79.2,20.3 C79.6,19.8 80.1,19.5 80.9,19.2 C81.6,18.9 82.6,18.8 83.8,18.8 C85,18.8 86.2,19 87.3,19.3 C87.2,19.8 87.1,20.6 87.1,21.8 L86.1,21.8 C86,21.1 86,20.7 85.9,20.6 C85.8,20.4 85.5,20.3 85.2,20.1 C84.7,19.9 84.2,19.8 83.6,19.8 C82.9,19.8 82.3,19.9 81.9,20.2 C81.5,20.4 81.3,20.8 81.3,21.1 C81.3,21.4 81.5,21.7 81.8,21.9 C82.2,22.1 83,22.3 84.3,22.5 C85.2,22.6 85.9,22.7 86.2,22.9 C86.8,23.1 87.2,23.4 87.5,23.8 C87.8,24.2 88,24.7 88,25.2 C88,26.3 87.4,27.1 86.3,27.7 C85.2,28.3 83.9,28.6 82.3,28.6 C81.8,28.6 81.2,28.6 80.6,28.5 C80,28.4 79.3,28.3 78.6,28.1 L78.4,27.9 C78.5,27.3 78.6,26.4 78.6,25.2"/>
    <path fill="#FFF" fill-rule="nonzero" d="M86.7,31.7 L86.7,30.6 C88.1,30.5 88.8,30.5 89,30.4 C89.1,30.4 89.2,30.3 89.3,30.2 C89.4,30.1 89.5,29.8 89.6,29.4 C89.7,28.7 89.8,27.5 89.8,25.7 L89.8,20.9 C89.8,19.4 89.8,18.1 89.7,17.1 C89.6,16.1 89.6,15.5 89.4,15.3 C89.3,15.2 89.2,15.1 89.1,15 C88.9,14.9 88.1,14.9 86.7,14.8 L86.7,14 C88.7,14.1 90.5,14.1 92.1,14.1 C94,14.1 95.8,14.1 97.5,14 L97.5,15.1 C96.1,15.2 95.3,15.3 95,15.4 C94.8,15.5 94.6,15.8 94.6,16.2 C94.5,16.7 94.5,18.9 94.5,22.6 L94.7,22.6 C95.8,21.9 97.5,20.8 99.6,19.2 C101.7,17.6 103.4,16.3 104.6,15.2 L104.6,14.7 L104.6,14.2 L104.8,14.1 C106,14.2 107.1,14.2 107.9,14.2 C108.8,14.2 109.8,14.2 111,14.1 L111,15.2 L110,15.3 C109.2,15.4 108.7,15.4 108.5,15.5 C108,15.7 107.4,16 106.7,16.4 C105.6,17.1 104.2,18.1 102.4,19.3 L99.4,21.4 L100.9,22.8 C102.7,24.5 104.9,26.4 107.5,28.5 C109,29.7 109.8,30.4 110.1,30.5 C110.3,30.6 110.8,30.7 111.7,30.7 L111.7,31.8 L110.8,31.8 L107.8,31.7 C107,31.7 105.9,31.7 104.7,31.8 C103.8,30.9 102.3,29.5 100.1,27.6 C98.5,26.2 96.9,24.8 95.5,23.7 C95.3,23.5 95.2,23.5 95.1,23.4 C95,23.4 95,23.4 94.9,23.4 C94.7,23.4 94.6,23.5 94.5,23.6 C94.5,23.7 94.4,24 94.4,24.6 L94.5,28.4 C94.5,29.5 94.6,30.2 94.7,30.3 C94.8,30.4 94.9,30.5 95,30.6 C95.2,30.7 96,30.7 97.4,30.8 L97.4,31.9 C95.7,31.8 93.9,31.8 91.9,31.8 C91,31.6 89.2,31.7 86.7,31.7"/>
  </g>
</svg>
