<?xml version="1.0" encoding="UTF-8"?>
<svg width="250px" height="100px" viewBox="0 0 250 100" version="1.1" xmlns="http://www.w3.org/2000/svg" xmlns:xlink="http://www.w3.org/1999/xlink">
    <!-- Generator: Sketch 51 (57462) - http://www.bohemiancoding.com/sketch -->
    <title>logo_babysam</title>
    <desc>Created with Sketch.</desc>
    <defs></defs>
    <g id="Page-1" stroke="none" stroke-width="1" fill="none" fill-rule="evenodd">
        <g id="sl_web_logos-copy" transform="translate(-270.000000, -547.000000)" fill="#9B9B9B">
            <g id="logos" transform="translate(270.000000, 547.000000)">
                <g id="logo_babysam">
                    <g transform="translate(57.000000, 34.000000)" id="Shape">
                        <path d="M33.9793402,16.6452643 C34.0688411,13.5012508 33.4913474,10.1265401 31.8696769,8.27483862 C28.8415643,4.8164237 19.7678811,4.65513988 19.7678811,12.3804304 C20.7140331,11.5168474 28.1958794,8.44837183 27.8655786,13.4726688 C21.6857568,13.8809823 18.7577998,15.2896637 19.0156476,20.3282516 C19.2649714,25.2157636 24.1534236,27.1920007 29.7664066,25.2790522 C30.8681196,25.6444928 32.3235742,25.6873657 33.9068872,25.5750795 C33.8749226,22.6515552 34.0603172,19.5259157 33.9793402,16.6452643 Z M27.75903,20.6406114 C27.5075751,21.1877515 26.72977,21.4266148 26.173586,21.4266148 C22.5679796,21.4266148 23.1518662,16.0082953 27.8677096,17.3006074 C27.8655786,18.4275525 28.1149024,19.8668574 27.75903,20.6406114 Z"></path>
                        <path d="M107.97934,16.6452643 C108.068841,13.5012508 107.491347,10.1265401 105.869677,8.27483862 C102.841564,4.8164237 93.7678811,4.65513988 93.7678811,12.3804304 C94.7140331,11.5168474 102.195879,8.44837183 101.865579,13.4726688 C95.6857568,13.8809823 92.7577998,15.2896637 93.0156476,20.3282516 C93.2649714,25.2157636 98.1534236,27.1920007 103.766407,25.2790522 C104.86812,25.6444928 106.323574,25.6873657 107.906887,25.5750795 C107.874923,22.6515552 108.060317,19.5259157 107.97934,16.6452643 Z M101.75903,20.6406114 C101.507575,21.1877515 100.72977,21.4266148 100.173586,21.4266148 C96.5679796,21.4266148 97.1518662,16.0082953 101.86771,17.3006074 C101.865579,18.4275525 102.114902,19.8668574 101.75903,20.6406114 Z"></path>
                        <path d="M13.2836299,12.452316 C14.7972699,13.0698229 16,15.7005716 16,17.6736331 C16,25.0519949 7.70566218,28.1881687 1.21951046,24.3604717 C-1.57458706,19.3527443 1.4792838,8.9904707 0.266326386,1.86587887 C6.75247811,0.174079095 16.4909103,0.199456091 15.6072718,9.09620818 C15.4599987,10.576533 14.7522698,12.0441693 13.279539,12.4565455 L13.2836299,12.452316 Z M5.60702085,6.22437806 C4.66406407,6.85880297 5.51088426,9.3351749 5.33292929,10.7562867 C7.12884263,10.8197292 9.19680207,10.7922375 9.72043968,9.91038683 C10.1295316,9.21886367 10.3463503,7.29655617 9.72043968,6.647328 C8.48498221,5.36578967 6.3045225,5.76124787 5.60702085,6.22437806 Z M5.33497475,15.2945396 C5.41474767,17.0074869 5.01792854,19.6340061 5.60906631,20.395316 C6.20020407,21.1566259 8.25589076,21.3110026 9.17430202,20.6808072 C11.6820352,18.3736152 9.68157595,13.9326408 5.33497475,15.2945396 Z"></path>
                        <path d="M42.1141091,1.17655526 C42.8950541,2.47641079 42.5975512,4.74958809 42.6657289,7.34929914 C43.415684,6.72134961 44.3185225,5.8945494 45.9899101,5.67476706 C53.4109533,4.65120933 56.4231697,18.0746771 51.8036116,23.3389873 C49.5868022,25.8507855 44.192497,27.1066845 40.4406556,24.7435011 C34.7385176,21.1369777 38.0750947,10.0118051 37.1185404,0.0441529388 C37.5338048,-0.0667848116 41.3724179,-0.0584121512 42.1141091,1.17655526 Z M44.0499436,20.8188166 C44.8019647,21.3086172 45.8370267,21.4090891 46.5415299,21.0972075 C49.5165584,19.7868862 48.6447098,11.4812071 46.8183729,10.7172018 C41.5666212,8.51728527 42.2194747,19.6236193 44.0499436,20.8188166 Z"></path>
                        <path d="M56,6 C56.4909386,12.3120968 59.4060142,19.4854116 61.646813,24.3040306 C61.147726,26.4318689 59.8969528,28.179511 56.454271,27.4023144 C56.0305563,29.4650362 57.0959543,31.1580645 57.8211583,31.6243825 C58.7154407,32.1999281 61.7955206,32.0444888 62.463686,31.6243825 C65.3156118,29.8326292 67.2080682,24.8606714 68.7419969,20.6428044 C70.2596288,16.4690485 72.3415346,10.6652802 71.9524505,6.42010628 C70.9929811,5.61980382 69.2797886,6.29827546 67.3119598,6 C66.7660198,9.9006868 65.8045134,14.427332 64.3724392,17.5529227 C62.8099913,14.6583904 62.2986818,9.32724173 61.1130955,6.21005314 C60.3940028,5.68281976 57.3057746,6.42430734 56,6 Z"></path>
                        <path d="M82.1532296,5.3297682 C80.7845619,5.53898566 79.5748917,6.15408499 79.4072998,7.70438637 C79.0978992,10.6899195 85.0538597,10.2965907 87.4474166,12.22976 C90.0257545,14.3219346 91.082873,19.8620129 88.5561019,23.0609479 C84.6499201,28.0047565 72.4672737,26.7829265 74.1603822,18.8535848 C75.4194706,18.4665325 77.2586849,21.0775664 79.6758766,21.1696221 C81.9147333,21.253309 84.2438318,20.4645592 84.2438318,17.7342714 C84.2438318,13.5917657 77.7012996,14.985154 75.567725,12.1565339 C72.8153493,8.52033446 74.1238558,4.25439046 77.3059544,2.32331331 C80.3548389,0.463370096 89.2952254,-0.519951963 88.6635326,7.00769223 C87.0692604,7.65626635 85.4943257,4.83810717 82.1532296,5.3297682 Z"></path>
                        <path d="M135.409811,8.96746151 C134.097533,6.74792887 128.503082,3.70351246 123.762554,8.71659479 C121.788903,4.79414488 114.289869,5.3362721 112.349706,8.96746151 C110.522562,12.4094379 110.918129,22.1315861 111.42253,25.2929319 C112.971312,26.5834073 114.892638,25.6500981 116.749084,25.9583665 C117.284878,22.1911138 116.248869,16.5870065 116.554439,13.4150307 C116.908148,9.7498255 120.616852,10.0538419 121.110788,13.4150307 C121.604724,16.7762195 120.591737,22.7119811 121.497983,25.3035619 C122.307954,26.3878163 124.428111,25.6819879 126.824537,25.9689965 C126.558733,21.4044978 126.594313,15.1881057 126.8057,13.4256607 C127.211732,10.0240781 130.709049,10.0113222 131.200892,13.4256607 C131.694828,16.7996054 130.704863,22.7226111 131.619482,25.3141918 C132.429453,26.3984463 134.549609,25.6926179 136.946035,25.9796264 C136.786971,20.9601661 137.712054,12.8643996 135.409811,8.96746151 Z"></path>
                    </g>
                </g>
            </g>
        </g>
    </g>
</svg>