<?xml version="1.0" encoding="UTF-8"?>
<svg width="250px" height="100px" viewBox="0 0 250 100" version="1.1" xmlns="http://www.w3.org/2000/svg" xmlns:xlink="http://www.w3.org/1999/xlink">
    <!-- Generator: Sketch 51 (57462) - http://www.bohemiancoding.com/sketch -->
    <title>logo_bestseller</title>
    <desc>Created with Sketch.</desc>
    <defs></defs>
    <g id="Page-1" stroke="none" stroke-width="1" fill="none" fill-rule="evenodd">
        <g id="sl_web_logos-copy" transform="translate(-958.000000, -547.000000)" fill="#9B9B9B" fill-rule="nonzero">
            <g id="logos" transform="translate(270.000000, 547.000000)">
                <g id="logo_bestseller" transform="translate(688.000000, 0.000000)">
                    <g id="Group" transform="translate(25.000000, 40.000000)">
                        <path d="M89.9308437,15.344 C89.8755187,18.228 87.8284924,20.972 83.8450899,20.972 C80.4979253,20.972 77.6763485,18.48 77.5103734,15.26 C78.0912863,15.26 80.6362379,15.26 81.0788382,15.26 C81.1618257,16.856 82.2683264,17.808 84.1770401,17.724 C85.8921162,17.64 86.6943292,16.156 86.7219917,15.008 C86.7496542,13.636 86.5283541,12.404 82.7109267,11.06 C79.4467497,9.912 77.8976487,8.512 77.8976487,5.32 C77.8976487,2.128 80.857538,0.168 83.4024896,0.112 C87.6625173,0.028 89.626556,2.828 89.571231,5.124 L86.0857538,5.124 C85.9751037,3.92 84.813278,3.08 83.5684647,3.08 C82.2959889,3.08 81.0511757,3.948 81.0511757,5.6 C81.0511757,7.42 82.1300138,8.064 84.757953,9.016 C89.3499308,10.556 90.0138313,12.712 89.9308437,15.344 Z" id="Shape"></path>
                        <path d="M51.6182573,15.344 C51.5629322,18.228 49.5159059,20.972 45.5325035,20.972 C42.1853389,20.972 39.3637621,18.48 39.197787,15.26 C39.7786999,15.26 42.3236515,15.26 42.7662517,15.26 C42.8492393,16.856 43.95574,17.808 45.8644537,17.724 C47.5795297,17.64 48.3817427,16.156 48.4094053,15.008 C48.4370678,13.636 48.2157676,12.404 44.3983402,11.06 C41.1341632,9.912 39.5850622,8.512 39.5850622,5.32 C39.5850622,2.128 42.5449516,0.168 45.0899032,0.112 C49.3499308,0.028 51.3139696,2.828 51.2586445,5.124 L47.7731674,5.124 C47.6625173,3.92 46.5006916,3.08 45.2558783,3.08 C43.9834025,3.08 42.7385892,3.948 42.7385892,5.6 C42.7385892,7.42 43.8174274,8.064 46.4453665,9.016 C51.0373444,10.556 51.6735823,12.712 51.6182573,15.344 Z" id="Shape"></path>
                        <path d="M197.980636,2.212 L198.174274,2.212 C198.395574,2.212 198.561549,2.128 198.561549,1.96 C198.561549,1.792 198.450899,1.708 198.201936,1.708 C198.118949,1.708 198.035961,1.708 197.980636,1.736 L197.980636,2.212 Z M197.952974,3.164 L197.565698,3.164 L197.565698,1.512 C197.731674,1.484 197.925311,1.456 198.201936,1.456 C198.506224,1.456 198.644537,1.512 198.782849,1.596 C198.865837,1.68 198.948824,1.792 198.948824,1.96 C198.948824,2.156 198.810512,2.296 198.616874,2.352 L198.616874,2.38 C198.782849,2.436 198.865837,2.576 198.921162,2.8 C198.976487,3.052 199.004149,3.164 199.031812,3.22 L198.616874,3.22 C198.561549,3.164 198.533887,3.024 198.478562,2.828 C198.450899,2.66 198.340249,2.576 198.146611,2.576 L197.952974,2.576 L197.952974,3.164 Z M198.229599,0.98 C197.510373,0.98 196.957123,1.568 196.957123,2.296 C196.957123,3.052 197.482711,3.64 198.229599,3.64 C198.948824,3.668 199.502075,3.052 199.502075,2.324 C199.502075,1.568 198.976487,0.98 198.229599,0.98 Z M198.257261,0.616 C199.197787,0.616 199.917012,1.372 199.917012,2.296 C199.917012,3.248 199.170124,3.976 198.201936,3.948 C197.261411,3.948 196.514523,3.192 196.514523,2.268 C196.542185,1.344 197.289073,0.616 198.257261,0.616 C198.229599,0.616 198.257261,0.616 198.257261,0.616 Z" id="Shape"></path>
                        <polygon id="Shape" points="140.77455 0.7 137.731674 0.7 137.731674 20.3 148.35408 20.3 148.35408 17.5 140.912863 17.5 140.77455 17.332"></polygon>
                        <polygon id="Shape" points="122.406639 0.7 119.363762 0.7 119.363762 20.3 130.013831 20.3 130.013831 17.5 122.544952 17.472 122.406639 17.332"></polygon>
                        <polygon id="Shape" points="63.2365145 3.668 63.0982019 3.5 57.9253112 3.528 57.9253112 0.7 71.5905947 0.7 71.5905947 3.528 66.417704 3.5 66.2793914 3.668 66.2793914 20.3 63.2365145 20.3"></polygon>
                        <polygon id="Shape" points="167.413555 0.7 156.791148 0.7 156.791148 20.3 167.413555 20.3 167.413555 17.472 159.972337 17.472 159.834025 17.332 159.834025 11.844 159.972337 11.704 166.168741 11.704 166.168741 8.848 159.972337 8.848 159.834025 8.708 159.834025 3.668 159.972337 3.528 167.413555 3.528"></polygon>
                        <polygon id="Shape" points="109.405256 0.7 98.8105118 0.7 98.8105118 20.3 109.405256 20.3 109.405256 17.472 101.964039 17.472 101.825726 17.332 101.825726 11.844 101.964039 11.704 108.160443 11.704 108.160443 8.848 101.964039 8.848 101.825726 8.708 101.825726 3.668 101.964039 3.528 109.405256 3.528"></polygon>
                        <polygon id="Shape" points="31.3692946 0.7 20.746888 0.7 20.746888 20.3 31.3692946 20.3 31.3692946 17.5 23.9280775 17.5 23.7897649 17.36 23.7897649 11.844 23.9280775 11.704 30.1244813 11.704 30.1244813 8.848 23.9280775 8.848 23.7897649 8.708 23.7897649 3.668 23.9280775 3.528 31.3692946 3.528"></polygon>
                        <path d="M181.853389,0.7 C180.6639,0.7 177.731674,0.7 177.178423,0.812 L177.178423,20.3 L180.2213,20.3 C180.2213,20.02 180.2213,11.984 180.2213,11.984 L180.359613,11.844 L181.853389,11.844 C183.236515,11.844 183.73444,12.768 184.343015,14.112 C185.172891,15.96 185.560166,17.612 186.334716,20.3 L189.654219,20.3 C189.349931,19.264 188.215768,15.848 187.24758,13.188 C186.666667,11.62 185.919779,10.752 185.034578,10.528 L185.034578,10.444 C186.639004,9.8 188.381743,8.68 188.46473,5.796 C188.520055,4.34 188.188105,3.024 187.275242,2.128 C186.113416,1.008 184.28769,0.7 181.853389,0.7 Z M180.359613,8.848 L180.2213,8.708 L180.2213,3.668 L180.359613,3.528 L182.295989,3.528 C184.536653,3.528 185.338866,4.984 185.338866,6.132 C185.338866,8.428 183.84509,8.876 182.323651,8.848 L180.359613,8.848 Z" id="Shape"></path>
                        <path d="M4.89626556,0.7 C4.84094053,0.7 4.75795297,0.7 4.70262794,0.7 C3.54080221,0.7 0.553250346,0.7 0,0.812 L0,8.904 L0,11.144 L0,20.3 C0.60857538,20.412 3.59612725,20.44 4.86860304,20.44 C7.96680498,20.44 9.12863071,20.076 10.3457815,18.984 C11.3416321,18.088 11.8395574,16.716 11.8395574,15.008 C11.8395574,12.096 10.5117566,10.78 8.7966805,10.136 L8.7966805,10.052 C10.0968188,9.352 11.0926694,8.148 11.0926694,5.684 C11.0926694,4.116 10.5947441,2.996 9.65421853,2.184 C8.52005533,1.092 6.97095436,0.7 4.89626556,0.7 Z M3.18118949,8.848 L3.0428769,8.68 L3.0428769,3.64 L3.18118949,3.5 C3.37482711,3.5 3.48547718,3.5 3.6791148,3.5 C4.09405256,3.5 4.50899032,3.5 5.08990318,3.5 C7.38589212,3.5 8.07745505,4.648 8.07745505,6.02 C8.07745505,7.7 7.41355463,8.82 5.22821577,8.82 C5.17289073,8.848 3.18118949,8.848 3.18118949,8.848 Z M4.01106501,17.5 C3.56846473,17.5 3.31950207,17.5 3.18118949,17.5 L3.0428769,17.36 L3.0428769,11.844 L3.18118949,11.704 L5.06224066,11.704 C7.1922545,11.704 8.65836791,12.74 8.65836791,14.728 C8.65836791,16.296 7.96680498,17.5 5.22821577,17.5 C4.75795297,17.5 4.34301521,17.5 4.01106501,17.5 Z" id="Shape"></path>
                    </g>
                </g>
            </g>
        </g>
    </g>
</svg>