<?xml version="1.0" encoding="UTF-8"?>
<svg width="250px" height="100px" viewBox="0 0 250 100" version="1.1" xmlns="http://www.w3.org/2000/svg" xmlns:xlink="http://www.w3.org/1999/xlink">
    <!-- Generator: sketchtool 59.1 (101010) - https://sketch.com -->
    <title>ED59FDF4-E54C-43AF-A5C8-E8E6F219F46B</title>
    <desc>Created with sketchtool.</desc>
    <g id="About-page-(new-frontpage-2019)" stroke="none" stroke-width="1" fill="none" fill-rule="evenodd">
        <g id="web-front-design-changes" transform="translate(-170.000000, -771.000000)" fill="#9B9B9B" fill-rule="nonzero">
            <g id="logos" transform="translate(170.000000, 647.000000)">
                <g id="logo_shaeffer" transform="translate(0.000000, 124.000000)">
                    <path d="M20,59.7526179 C21.2090802,60.9563863 23.0898717,61.8433735 25.6423744,61.8433735 C29.4039573,61.8433735 31.0160643,60.0060429 31.0160643,57.7885749 C31.0160643,54.9375446 28.2620482,54.3039823 25.97823,53.7337762 C24.366123,53.3536389 22.9555294,53.0368577 22.9555294,51.9598018 C22.9555294,51.0094584 23.8959252,50.3125399 25.3065188,50.3125399 C26.7842835,50.3125399 28.2620482,50.7560335 29.3367862,51.8330894 L30.7473798,50.1224712 C29.4711284,48.9187028 27.7246792,48.2851406 25.5752033,48.2851406 C22.5525027,48.2851406 20.537369,49.9324025 20.537369,52.0865143 C20.537369,54.8741883 23.2242139,55.5077506 25.440861,56.0146005 C27.1201391,56.3947378 28.5979038,56.7748752 28.5979038,57.9786435 C28.5979038,58.8656307 27.7918503,59.7526179 25.8438877,59.7526179 C23.8959252,59.7526179 22.4181604,58.928987 21.4777647,57.9786435 L20,59.7526179 Z" id="Path"></path>
                    <path d="M41.5929057,61.8433735 C44.3879602,61.8433735 46.0516832,60.4495365 47.1164659,58.928987 L45.0534494,57.9152873 C44.3879602,58.9923432 43.0569819,59.8159742 41.5929057,59.8159742 C38.8644,59.8159742 36.8679325,57.8519311 36.8679325,55.064257 C36.8679325,52.276583 38.8644,50.3125399 41.5929057,50.3125399 C43.0569819,50.3125399 44.3879602,51.1361709 45.0534494,52.2132267 L47.1164659,51.1995271 C46.1182321,49.6156214 44.3879602,48.2851406 41.5929057,48.2851406 C37.5334216,48.2851406 34.4056225,51.0094584 34.4056225,55.064257 C34.4056225,59.1190557 37.5334216,61.8433735 41.5929057,61.8433735 Z" id="Path"></path>
                    <polygon id="Path" points="59.9967871 61.8433735 62.3694779 61.8433735 62.3694779 48.2851406 59.9967871 48.2851406 59.9967871 53.8525309 52.8787149 53.8525309 52.8787149 48.2851406 50.5060241 48.2851406 50.5060241 61.8433735 52.8787149 61.8433735 52.8787149 55.9484896 59.9967871 55.9484896"></polygon>
                    <path d="M75.1132587,50.7085928 L75.1132587,57.1274664 L71.2266451,57.1274664 L75.1132587,50.7085928 Z M75.1132587,61.8433735 L84.4016064,61.8433735 L84.4016064,59.7474148 L77.4847517,59.7474148 L77.4847517,56.0139883 L84.2698568,56.0139883 L84.2698568,53.9180296 L77.4847517,53.9180296 L77.4847517,50.3810993 L84.4016064,50.3810993 L84.4016064,48.2851406 L74.1251366,48.2851406 L65.7590361,61.8433735 L68.4599032,61.8433735 L70.0408986,59.2234251 L75.0473839,59.2234251 L75.0473839,61.8433735 L75.1132587,61.8433735 Z" id="Shape"></path>
                    <polygon id="Path" points="88.6385542 61.8433735 91.0184568 61.8433735 91.0184568 56.0139883 97.8276225 56.0139883 97.8276225 53.9180296 91.0184568 53.9180296 91.0184568 50.3810993 97.9598394 50.3810993 97.9598394 48.2851406 88.6385542 48.2851406"></polygon>
                    <polygon id="Path" points="102.196787 61.8433735 104.57669 61.8433735 104.57669 56.0139883 111.385855 56.0139883 111.385855 53.9180296 104.57669 53.9180296 104.57669 50.3810993 111.518072 50.3810993 111.518072 48.2851406 102.196787 48.2851406"></polygon>
                    <polygon id="Path" points="114.907631 61.8433735 124.228916 61.8433735 124.228916 59.7474148 117.336416 59.7474148 117.336416 56.0139883 124.09763 56.0139883 124.09763 53.9180296 117.336416 53.9180296 117.336416 50.3810993 124.228916 50.3810993 124.228916 48.2851406 114.907631 48.2851406"></polygon>
                    <path d="M136.140335,52.5425567 C136.140335,53.8525309 135.181026,54.7040141 133.901947,54.7040141 L130.768205,54.7040141 L130.768205,50.3810993 L133.901947,50.3810993 C135.24498,50.3810993 136.140335,51.2325825 136.140335,52.5425567 Z M135.948473,61.8433735 L138.634538,61.8433735 L135.436842,56.537978 C137.03569,56.2759832 138.570584,54.966009 138.570584,52.5425567 C138.570584,50.0536057 136.843828,48.2851406 134.285671,48.2851406 L128.465863,48.2851406 L128.465863,61.7778748 L130.768205,61.7778748 L130.768205,56.7344741 L133.070546,56.7344741 L135.948473,61.8433735 Z" id="Shape"></path>
                    <path d="M142.871486,55.064257 C142.871486,59.1824119 146.098591,61.8433735 149.984289,61.8433735 C152.355224,61.8433735 154.265143,60.8930301 155.582329,59.499193 L155.582329,54.5574072 L149.128119,54.5574072 L149.128119,56.5848065 L153.211395,56.5848065 L153.211395,58.6122058 C152.618661,59.1824119 151.367335,59.8159742 149.984289,59.8159742 C147.284059,59.8159742 145.30828,57.7885749 145.30828,55.064257 C145.30828,52.3399392 147.284059,50.3125399 149.984289,50.3125399 C151.499053,50.3125399 152.816239,51.0728146 153.540691,52.0865143 L155.51647,51.0094584 C154.396862,49.4889089 152.68452,48.2851406 150.050149,48.2851406 C146.098591,48.2851406 142.871486,50.9461022 142.871486,55.064257 Z" id="Path"></path>
                    <path d="M164.870865,50.9221434 L167.294317,57.2179114 L162.447413,57.2179114 L164.870865,50.9221434 Z M168.997284,61.8433735 L171.682731,61.8433735 L166.377335,48.5451698 L163.429893,48.5451698 L158.124498,61.779131 L160.809945,61.779131 L161.792426,59.2094298 L168.014803,59.2094298 L168.997284,61.8433735 Z M165.984343,46.1039537 C165.984343,46.6821365 165.525852,47.1318342 164.936364,47.1318342 C164.346875,47.1318342 163.888384,46.6821365 163.888384,46.1039537 C163.888384,45.525771 164.346875,45.0760732 164.936364,45.0760732 C165.525852,45.0760732 165.984343,45.525771 165.984343,46.1039537 Z M162.840405,46.1039537 C162.840405,47.1960767 163.757387,48.1597147 164.936364,48.1597147 C166.049842,48.1597147 166.966824,47.2603193 166.966824,46.1039537 C166.966824,45.0118307 166.049842,44.0481928 164.936364,44.0481928 C163.757387,44.0481928 162.840405,45.0118307 162.840405,46.1039537 Z" id="Shape"></path>
                    <path d="M182.810715,52.5425567 C182.810715,53.8525309 181.851406,54.7040141 180.572327,54.7040141 L177.438585,54.7040141 L177.438585,50.3810993 L180.572327,50.3810993 C181.851406,50.3810993 182.810715,51.2325825 182.810715,52.5425567 Z M182.554899,61.8433735 L185.240964,61.8433735 L182.043267,56.537978 C183.642116,56.2759832 185.17701,54.966009 185.17701,52.5425567 C185.17701,50.0536057 183.450254,48.2851406 180.892097,48.2851406 L175.072289,48.2851406 L175.072289,61.7778748 L177.374631,61.7778748 L177.374631,56.7344741 L179.676972,56.7344741 L182.554899,61.8433735 Z" id="Shape"></path>
                    <path d="M191.786476,59.7372402 L191.786476,50.3254572 L194.415674,50.3254572 C197.365505,50.3254572 198.968675,52.4315904 198.968675,54.9984404 C198.968675,57.5652903 197.301378,59.6714236 194.415674,59.6714236 L191.786476,59.6714236 L191.786476,59.7372402 Z M189.477912,61.8433735 L194.415674,61.8433735 C198.519787,61.8433735 201.341365,59.0790736 201.341365,55.064257 C201.341365,51.0494405 198.519787,48.2851406 194.415674,48.2851406 L189.477912,48.2851406 L189.477912,61.8433735 Z" id="Shape"></path>
                    <polygon id="Path" points="205.578313 61.8433735 214.899598 61.8433735 214.899598 59.7474148 208.007099 59.7474148 208.007099 56.0139883 214.768313 56.0139883 214.768313 53.9180296 208.007099 53.9180296 208.007099 50.3810993 214.899598 50.3810993 214.899598 48.2851406 205.578313 48.2851406"></polygon>
                    <polygon id="Path" points="228.68033 61.8433735 231 61.8433735 231 48.2851406 228.547778 48.2851406 228.547778 57.7169548 221.588768 48.2851406 219.136546 48.2851406 219.136546 61.8433735 221.522492 61.8433735 221.522492 52.2150632"></polygon>
                    <polygon id="Path" points="39.4899598 77.9437751 40.2721656 77.9437751 40.2721656 75.6692031 42.8143343 75.6692031 42.8143343 75.0002114 40.2721656 75.0002114 40.2721656 73.5284295 42.8795181 73.5284295 42.8795181 72.8594378 39.4899598 72.8594378"></polygon>
                    <path d="M48.075354,75.4016064 C48.075354,76.5097312 47.4063623,77.291937 46.2690763,77.291937 C45.1986895,77.291937 44.4627986,76.4445474 44.4627986,75.4016064 C44.4627986,74.2934816 45.1317903,73.5112759 46.2690763,73.5112759 C47.3394631,73.5112759 48.075354,74.2934816 48.075354,75.4016064 Z M43.7269076,75.4016064 C43.7269076,76.9008341 44.7972944,77.9437751 46.2690763,77.9437751 C47.8077573,77.9437751 48.811245,76.8356503 48.811245,75.4016064 C48.811245,73.9023787 47.7408582,72.8594378 46.2690763,72.8594378 C44.7972944,72.8594378 43.7269076,73.9023787 43.7269076,75.4016064 Z" id="Shape"></path>
                    <polygon id="Path" points="54.0147465 77.9437751 54.7429719 77.9437751 54.7429719 72.8594378 54.0147465 72.8594378 54.0147465 76.6057916 51.3004518 72.8594378 50.5060241 72.8594378 50.5060241 77.9437751 51.2342495 77.9437751 51.2342495 74.0636229"></polygon>
                    <path d="M57.143909,77.2747833 L57.143909,73.5284295 L58.1710478,73.5284295 C59.326579,73.5284295 59.9685408,74.3312196 59.9685408,75.4016064 C59.9685408,76.4050941 59.326579,77.2747833 58.1710478,77.2747833 L57.143909,77.2747833 Z M56.437751,77.9437751 L58.1710478,77.9437751 C59.7117561,77.9437751 60.6746988,76.8733883 60.6746988,75.4016064 C60.6746988,73.9298246 59.6475599,72.8594378 58.1710478,72.8594378 L56.437751,72.8594378 L56.437751,77.9437751 Z" id="Shape"></path>
                    <polygon id="Path" points="62.3694779 77.9437751 65.7590361 77.9437751 65.7590361 77.2747833 63.1516837 77.2747833 63.1516837 75.6692031 65.6938523 75.6692031 65.6938523 75.0002114 63.1516837 75.0002114 63.1516837 73.5284295 65.7590361 73.5284295 65.7590361 72.8594378 62.3694779 72.8594378"></polygon>
                    <polygon id="Path" points="68.3299299 77.9437751 69.1198693 77.9437751 69.1198693 73.5284295 70.8433735 73.5284295 70.8433735 72.8594378 66.6064257 72.8594378 66.6064257 73.5284295 68.3299299 73.5284295"></polygon>
                    <polygon id="Path" points="75.0803213 77.9437751 75.8778644 77.9437751 75.8778644 75.6692031 78.4698795 75.6692031 78.4698795 75.0002114 75.8778644 75.0002114 75.8778644 73.5284295 78.4698795 73.5284295 78.4698795 72.8594378 75.0803213 72.8594378"></polygon>
                    <path d="M83.6657155,75.4016064 C83.6657155,76.5097312 82.9967237,77.291937 81.8594378,77.291937 C80.7890509,77.291937 80.05316,76.4445474 80.05316,75.4016064 C80.05316,74.2934816 80.7221518,73.5112759 81.8594378,73.5112759 C82.9298246,73.5112759 83.6657155,74.2934816 83.6657155,75.4016064 Z M79.3172691,75.4016064 C79.3172691,76.9008341 80.3876559,77.9437751 81.8594378,77.9437751 C83.3312196,77.9437751 84.4016064,76.8356503 84.4016064,75.4016064 C84.4016064,73.9023787 83.3312196,72.8594378 81.8594378,72.8594378 C80.3876559,72.8594378 79.3172691,73.9023787 79.3172691,75.4016064 Z" id="Shape"></path>
                    <path d="M88.7596099,74.3312196 C88.7596099,74.866413 88.3964429,75.2009089 87.9122203,75.2009089 L86.7621916,75.2009089 L86.7621916,73.3946312 L87.9122203,73.3946312 C88.3964429,73.4615303 88.7596099,73.7960262 88.7596099,74.3312196 Z M88.699082,77.8768759 L89.4859438,77.8768759 L88.3359151,75.8699007 C88.9411933,75.8030015 89.4859438,75.2678081 89.4859438,74.3981188 C89.4859438,73.4615303 88.8806655,72.8594378 88.033276,72.8594378 L86.0963855,72.8594378 L86.0963855,77.9437751 L86.7621916,77.9437751 L86.7621916,76.003699 L87.6095812,76.003699 L88.699082,77.8768759 Z" id="Shape"></path>
                    <path d="M95.3406353,77.2747833 L95.3406353,73.5284295 L96.3677741,73.5284295 C97.5233053,73.5284295 98.1652671,74.3312196 98.1652671,75.4016064 C98.1652671,76.4050941 97.5233053,77.2747833 96.3677741,77.2747833 L95.3406353,77.2747833 Z M94.5702811,77.9437751 L96.3035779,77.9437751 C97.8442862,77.9437751 98.8072289,76.8733883 98.8072289,75.4016064 C98.8072289,73.9298246 97.7800901,72.8594378 96.3035779,72.8594378 L94.5702811,72.8594378 L94.5702811,77.9437751 Z" id="Shape"></path>
                    <path d="M102.12808,73.6622279 L103.158689,76.2712957 L101.097471,76.2712957 L102.12808,73.6622279 Z M103.845761,77.9437751 L104.738956,77.9437751 L102.677738,72.8594378 L101.715836,72.8594378 L99.6546185,77.9437751 L100.547813,77.9437751 L100.960056,76.8733883 L103.433518,76.8733883 L103.845761,77.9437751 Z" id="Shape"></path>
                    <polygon id="Path" points="109.106271 77.9437751 109.823293 77.9437751 109.823293 72.8594378 109.041087 72.8594378 109.041087 76.6057916 106.368551 72.8594378 105.586345 72.8594378 105.586345 77.9437751 106.368551 77.9437751 106.368551 74.0636229"></polygon>
                    <path d="M110.670683,77.1615694 C111.101559,77.617856 111.819686,77.9437751 112.825063,77.9437751 C114.333129,77.9437751 114.907631,77.2267532 114.907631,76.4445474 C114.907631,75.4016064 113.902253,75.1408712 112.968688,74.9453197 C112.322374,74.8149521 111.67606,74.6194007 111.67606,74.2282978 C111.67606,73.8371949 112.106936,73.5112759 112.681438,73.5112759 C113.255939,73.5112759 113.83044,73.7068273 114.261316,74.0979302 L114.764005,73.5764597 C114.261316,73.120173 113.615002,72.8594378 112.75325,72.8594378 C111.604247,72.8594378 110.814308,73.4460921 110.814308,74.2934816 C110.814308,75.3364226 111.819686,75.5319741 112.681438,75.7275255 C113.399564,75.9230769 113.974066,76.0534445 113.974066,76.574915 C113.974066,76.9008341 113.686815,77.3571208 112.75325,77.3571208 C111.963311,77.3571208 111.388809,77.0312017 111.029746,76.6400989 L110.670683,77.1615694 Z" id="Path"></path>
                    <polygon id="Path" points="119.850736 77.9437751 120.839357 77.9437751 118.43842 75.2678081 120.62751 72.8594378 119.638889 72.8594378 117.379183 75.4016064 117.379183 72.8594378 116.60241 72.8594378 116.60241 77.9437751 117.379183 77.9437751 117.379183 76.2712957 117.873494 75.7361023"></polygon>
                    <rect id="Rectangle" x="124.228916" y="76.248996" width="1.69477912" height="1"></rect>
                    <polygon id="Path" points="133.669365 77.9437751 134.39759 77.9437751 134.39759 72.8594378 133.669365 72.8594378 133.669365 76.6057916 130.95507 72.8594378 130.160643 72.8594378 130.160643 77.9437751 130.888868 77.9437751 130.888868 74.0636229"></polygon>
                    <path d="M140.373917,75.4016064 C140.373917,76.5097312 139.704925,77.291937 138.567639,77.291937 C137.497252,77.291937 136.761361,76.4445474 136.761361,75.4016064 C136.761361,74.2934816 137.430353,73.5112759 138.567639,73.5112759 C139.704925,73.5112759 140.373917,74.2934816 140.373917,75.4016064 Z M136.092369,75.4016064 C136.092369,76.9008341 137.162756,77.9437751 138.634538,77.9437751 C140.173219,77.9437751 141.176707,76.8356503 141.176707,75.4016064 C141.176707,73.9023787 140.10632,72.8594378 138.634538,72.8594378 C137.095857,72.8594378 136.092369,73.9023787 136.092369,75.4016064 Z" id="Shape"></path>
                    <path d="M145.53471,74.3312196 C145.53471,74.866413 145.171543,75.2009089 144.687321,75.2009089 L143.537292,75.2009089 L143.537292,73.3946312 L144.687321,73.3946312 C145.171543,73.4615303 145.53471,73.7960262 145.53471,74.3312196 Z M145.474182,77.8768759 L146.261044,77.8768759 L145.111015,75.8699007 C145.716294,75.8030015 146.261044,75.2678081 146.261044,74.3981188 C146.261044,73.4615303 145.655766,72.8594378 144.808376,72.8594378 L142.871486,72.8594378 L142.871486,77.9437751 L143.537292,77.9437751 L143.537292,76.003699 L144.384682,76.003699 L145.474182,77.8768759 Z" id="Shape"></path>
                    <path d="M147.108434,77.1615694 C147.53931,77.617856 148.257437,77.9437751 149.262814,77.9437751 C150.77088,77.9437751 151.345382,77.2267532 151.345382,76.4445474 C151.345382,75.4016064 150.340004,75.1408712 149.406439,74.9453197 C148.760125,74.8149521 148.113811,74.6194007 148.113811,74.2282978 C148.113811,73.8371949 148.544687,73.5112759 149.119189,73.5112759 C149.69369,73.5112759 150.268191,73.7068273 150.699067,74.0979302 L151.201756,73.5764597 C150.699067,73.120173 150.052753,72.8594378 149.191001,72.8594378 C148.041999,72.8594378 147.252059,73.4460921 147.252059,74.2934816 C147.252059,75.3364226 148.257437,75.5319741 149.119189,75.7275255 C149.837315,75.9230769 150.411817,76.0534445 150.411817,76.574915 C150.411817,76.9008341 150.124566,77.3571208 149.191001,77.3571208 C148.401062,77.3571208 147.82656,77.0312017 147.467497,76.6400989 L147.108434,77.1615694 Z" id="Path"></path>
                    <polygon id="Path" points="156.288487 77.9437751 157.277108 77.9437751 154.876171 75.2678081 157.065261 72.8594378 156.07664 72.8594378 153.816934 75.4016064 153.816934 72.8594378 153.040161 72.8594378 153.040161 77.9437751 153.816934 77.9437751 153.816934 76.2712957 154.311245 75.7361023"></polygon>
                    <path d="M160.666667,77.1615694 C161.097543,77.617856 161.815669,77.9437751 162.821047,77.9437751 C164.329113,77.9437751 164.903614,77.2267532 164.903614,76.4445474 C164.903614,75.4016064 163.898237,75.1408712 162.964672,74.9453197 C162.318358,74.8149521 161.672044,74.6194007 161.672044,74.2282978 C161.672044,73.8371949 162.10292,73.5112759 162.677422,73.5112759 C163.251923,73.5112759 163.826424,73.7068273 164.2573,74.0979302 L164.759989,73.5764597 C164.2573,73.120173 163.610986,72.8594378 162.749234,72.8594378 C161.600231,72.8594378 160.810292,73.4460921 160.810292,74.2934816 C160.810292,75.3364226 161.815669,75.5319741 162.677422,75.7275255 C163.395548,75.9230769 163.97005,76.0534445 163.97005,76.574915 C163.97005,76.9008341 163.682799,77.3571208 162.749234,77.3571208 C161.959295,77.3571208 161.384793,77.0312017 161.02573,76.6400989 L160.666667,77.1615694 Z" id="Path"></path>
                    <path d="M167.445783,73.6622279 L168.476392,76.2712957 L166.415174,76.2712957 L167.445783,73.6622279 Z M169.094757,77.9437751 L169.987952,77.9437751 L167.926734,72.8594378 L166.964832,72.8594378 L164.903614,77.9437751 L165.796809,77.9437751 L166.209052,76.8733883 L168.682514,76.8733883 L169.094757,77.9437751 Z" id="Shape"></path>
                    <polygon id="Path" points="176.040734 77.9437751 176.767068 77.9437751 176.767068 72.8594378 175.710583 72.8594378 174.257915 76.4719932 172.805247 72.8594378 171.682731 72.8594378 171.682731 77.9437751 172.475095 77.9437751 172.475095 73.9298246 174.059824 77.9437751 174.389975 77.9437751 176.040734 73.9298246"></polygon>
                    <path d="M180.156627,73.6622279 L181.187235,76.2712957 L179.126018,76.2712957 L180.156627,73.6622279 Z M181.805601,77.9437751 L182.698795,77.9437751 L180.637577,72.8594378 L179.675676,72.8594378 L177.614458,77.9437751 L178.507652,77.9437751 L178.919896,76.8733883 L181.393357,76.8733883 L181.805601,77.9437751 Z" id="Shape"></path>
                    <path d="M187.056799,74.3312196 C187.056799,74.866413 186.693632,75.2009089 186.209409,75.2009089 L185.05938,75.2009089 L185.05938,73.3946312 L186.209409,73.3946312 C186.693632,73.4615303 187.056799,73.7960262 187.056799,74.3312196 Z M186.996271,77.8768759 L187.783133,77.8768759 L186.633104,75.8699007 C187.238382,75.8030015 187.783133,75.2678081 187.783133,74.3981188 C187.783133,73.4615303 187.177854,72.8594378 186.330465,72.8594378 L184.393574,72.8594378 L184.393574,77.9437751 L185.05938,77.9437751 L185.05938,76.003699 L185.90677,76.003699 L186.996271,77.8768759 Z" id="Shape"></path>
                    <path d="M189.420462,77.2747833 L189.420462,75.6692031 L191.072153,75.6692031 C191.646654,75.6692031 192.005718,76.003699 192.005718,76.4719932 C192.005718,76.9402875 191.646654,77.2747833 191.072153,77.2747833 L189.420462,77.2747833 Z M189.420462,75.0002114 L189.420462,73.5284295 L191.00034,73.5284295 C191.574842,73.5284295 191.862092,73.8629254 191.862092,74.2643204 C191.862092,74.6657155 191.574842,75.0002114 191.00034,75.0002114 L189.420462,75.0002114 L189.420462,75.0002114 Z M188.630522,77.9437751 L191.287591,77.9437751 C192.292968,77.9437751 192.86747,77.3416825 192.86747,76.5388924 C192.86747,75.9367998 192.364781,75.4016064 191.79028,75.2678081 C192.292968,75.2009089 192.723845,74.7326147 192.723845,74.1305221 C192.723845,73.3946312 192.149343,72.8594378 191.215778,72.8594378 L188.630522,72.8594378 L188.630522,77.9437751 L188.630522,77.9437751 Z" id="Shape"></path>
                    <polygon id="Path" points="194.562249 77.9437751 197.951807 77.9437751 197.951807 77.2747833 195.29333 77.2747833 195.29333 75.6692031 197.885345 75.6692031 197.885345 75.0002114 195.29333 75.0002114 195.29333 73.5284295 197.951807 73.5284295 197.951807 72.8594378 194.562249 72.8594378"></polygon>
                    <path d="M199.646586,77.4223046 C199.92905,77.8134075 200.324498,77.9437751 200.776439,77.9437751 C201.567336,77.9437751 202.188755,77.4223046 202.188755,76.3141798 L202.188755,72.8594378 L201.567336,72.8594378 L201.567336,76.248996 C201.567336,76.8356503 201.284873,77.2267532 200.776439,77.2267532 C200.437483,77.2267532 200.211513,77.0312017 199.985542,76.7704665 L199.646586,77.4223046 Z" id="Path"></path>
                    <path d="M204.589692,77.2747833 L204.589692,73.5284295 L205.616831,73.5284295 C206.772362,73.5284295 207.414324,74.3312196 207.414324,75.4016064 C207.414324,76.4050941 206.772362,77.2747833 205.616831,77.2747833 L204.589692,77.2747833 Z M203.883534,77.9437751 L205.616831,77.9437751 C207.157539,77.9437751 208.120482,76.8733883 208.120482,75.4016064 C208.120482,73.9298246 207.093343,72.8594378 205.616831,72.8594378 L203.883534,72.8594378 L203.883534,77.9437751 Z" id="Shape"></path>
                    <polygon id="Path" points="209.815261 77.9437751 213.204819 77.9437751 213.204819 77.2747833 210.612804 77.2747833 210.612804 75.6692031 213.204819 75.6692031 213.204819 75.0002114 210.612804 75.0002114 210.612804 73.5284295 213.204819 73.5284295 213.204819 72.8594378 209.815261 72.8594378"></polygon>
                    <path d="M125.5,37.2690763 L112.365462,24.1345382 L125.5,11 L138.634538,24.1345382 L125.5,37.2690763 Z M114.241824,24.1992403 L125.564702,35.522118 L125.564702,12.8763626 L114.241824,24.1992403 Z" id="Shape"></path>
                </g>
            </g>
        </g>
    </g>
</svg>