<?xml version="1.0" encoding="UTF-8"?>
<svg width="170px" height="170px" viewBox="0 0 170 170" version="1.1" xmlns="http://www.w3.org/2000/svg" xmlns:xlink="http://www.w3.org/1999/xlink">
    <!-- Generator: Sketch 64 (93537) - https://sketch.com -->
    <title>qrcode (SL 496754)</title>
    <desc>Created with Sketch.</desc>
    <g id="About-page-(new-frontpage-2019)" stroke="none" stroke-width="1" fill="none" fill-rule="evenodd">
        <g id="web-front-design-changes-copy" transform="translate(-793.000000, -1070.000000)" fill-rule="nonzero">
            <g id="qr-code" transform="translate(606.000000, 958.000000)">
                <g id="qrcode-(SL-496754)" transform="translate(187.000000, 112.000000)">
                    <rect id="Rectangle" fill="#FFFFFF" x="0" y="0" width="170" height="170" rx="7"></rect>
                    <g id="elements" transform="translate(14.285714, 14.285714)" fill="#000000">
                        <path d="M0,0 L4.28571429,0 L4.28571429,4.28571429 L0,4.28571429 L0,0 Z M4.28571429,0 L8.57142857,0 L8.57142857,4.28571429 L4.28571429,4.28571429 L4.28571429,0 Z M8.57142857,0 L12.8571429,0 L12.8571429,4.28571429 L8.57142857,4.28571429 L8.57142857,0 Z M12.8571429,0 L17.1428571,0 L17.1428571,4.28571429 L12.8571429,4.28571429 L12.8571429,0 Z M17.1428571,0 L21.4285714,0 L21.4285714,4.28571429 L17.1428571,4.28571429 L17.1428571,0 Z M21.4285714,0 L25.7142857,0 L25.7142857,4.28571429 L21.4285714,4.28571429 L21.4285714,0 Z M25.7142857,0 L30,0 L30,4.28571429 L25.7142857,4.28571429 L25.7142857,0 Z M38.5714286,0 L42.8571429,0 L42.8571429,4.28571429 L38.5714286,4.28571429 L38.5714286,0 Z M64.2857143,0 L68.5714286,0 L68.5714286,4.28571429 L64.2857143,4.28571429 L64.2857143,0 Z M68.5714286,0 L72.8571429,0 L72.8571429,4.28571429 L68.5714286,4.28571429 L68.5714286,0 Z M72.8571429,0 L77.1428571,0 L77.1428571,4.28571429 L72.8571429,4.28571429 L72.8571429,0 Z M77.1428571,0 L81.4285714,0 L81.4285714,4.28571429 L77.1428571,4.28571429 L77.1428571,0 Z M81.4285714,0 L85.7142857,0 L85.7142857,4.28571429 L81.4285714,4.28571429 L81.4285714,0 Z M85.7142857,0 L90,0 L90,4.28571429 L85.7142857,4.28571429 L85.7142857,0 Z M98.5714286,0 L102.857143,0 L102.857143,4.28571429 L98.5714286,4.28571429 L98.5714286,0 Z M111.428571,0 L115.714286,0 L115.714286,4.28571429 L111.428571,4.28571429 L111.428571,0 Z M115.714286,0 L120,0 L120,4.28571429 L115.714286,4.28571429 L115.714286,0 Z M120,0 L124.285714,0 L124.285714,4.28571429 L120,4.28571429 L120,0 Z M124.285714,0 L128.571429,0 L128.571429,4.28571429 L124.285714,4.28571429 L124.285714,0 Z M128.571429,0 L132.857143,0 L132.857143,4.28571429 L128.571429,4.28571429 L128.571429,0 Z M132.857143,0 L137.142857,0 L137.142857,4.28571429 L132.857143,4.28571429 L132.857143,0 Z M137.142857,0 L141.428571,0 L141.428571,4.28571429 L137.142857,4.28571429 L137.142857,0 Z M0,4.28571429 L4.28571429,4.28571429 L4.28571429,8.57142857 L0,8.57142857 L0,4.28571429 Z M25.7142857,4.28571429 L30,4.28571429 L30,8.57142857 L25.7142857,8.57142857 L25.7142857,4.28571429 Z M34.2857143,4.28571429 L38.5714286,4.28571429 L38.5714286,8.57142857 L34.2857143,8.57142857 L34.2857143,4.28571429 Z M38.5714286,4.28571429 L42.8571429,4.28571429 L42.8571429,8.57142857 L38.5714286,8.57142857 L38.5714286,4.28571429 Z M47.1428571,4.28571429 L51.4285714,4.28571429 L51.4285714,8.57142857 L47.1428571,8.57142857 L47.1428571,4.28571429 Z M51.4285714,4.28571429 L55.7142857,4.28571429 L55.7142857,8.57142857 L51.4285714,8.57142857 L51.4285714,4.28571429 Z M77.1428571,4.28571429 L81.4285714,4.28571429 L81.4285714,8.57142857 L77.1428571,8.57142857 L77.1428571,4.28571429 Z M90,4.28571429 L94.2857143,4.28571429 L94.2857143,8.57142857 L90,8.57142857 L90,4.28571429 Z M102.857143,4.28571429 L107.142857,4.28571429 L107.142857,8.57142857 L102.857143,8.57142857 L102.857143,4.28571429 Z M111.428571,4.28571429 L115.714286,4.28571429 L115.714286,8.57142857 L111.428571,8.57142857 L111.428571,4.28571429 Z M137.142857,4.28571429 L141.428571,4.28571429 L141.428571,8.57142857 L137.142857,8.57142857 L137.142857,4.28571429 Z M0,8.57142857 L4.28571429,8.57142857 L4.28571429,12.8571429 L0,12.8571429 L0,8.57142857 Z M8.57142857,8.57142857 L12.8571429,8.57142857 L12.8571429,12.8571429 L8.57142857,12.8571429 L8.57142857,8.57142857 Z M12.8571429,8.57142857 L17.1428571,8.57142857 L17.1428571,12.8571429 L12.8571429,12.8571429 L12.8571429,8.57142857 Z M17.1428571,8.57142857 L21.4285714,8.57142857 L21.4285714,12.8571429 L17.1428571,12.8571429 L17.1428571,8.57142857 Z M25.7142857,8.57142857 L30,8.57142857 L30,12.8571429 L25.7142857,12.8571429 L25.7142857,8.57142857 Z M38.5714286,8.57142857 L42.8571429,8.57142857 L42.8571429,12.8571429 L38.5714286,12.8571429 L38.5714286,8.57142857 Z M42.8571429,8.57142857 L47.1428571,8.57142857 L47.1428571,12.8571429 L42.8571429,12.8571429 L42.8571429,8.57142857 Z M47.1428571,8.57142857 L51.4285714,8.57142857 L51.4285714,12.8571429 L47.1428571,12.8571429 L47.1428571,8.57142857 Z M60,8.57142857 L64.2857143,8.57142857 L64.2857143,12.8571429 L60,12.8571429 L60,8.57142857 Z M68.5714286,8.57142857 L72.8571429,8.57142857 L72.8571429,12.8571429 L68.5714286,12.8571429 L68.5714286,8.57142857 Z M85.7142857,8.57142857 L90,8.57142857 L90,12.8571429 L85.7142857,12.8571429 L85.7142857,8.57142857 Z M90,8.57142857 L94.2857143,8.57142857 L94.2857143,12.8571429 L90,12.8571429 L90,8.57142857 Z M94.2857143,8.57142857 L98.5714286,8.57142857 L98.5714286,12.8571429 L94.2857143,12.8571429 L94.2857143,8.57142857 Z M98.5714286,8.57142857 L102.857143,8.57142857 L102.857143,12.8571429 L98.5714286,12.8571429 L98.5714286,8.57142857 Z M111.428571,8.57142857 L115.714286,8.57142857 L115.714286,12.8571429 L111.428571,12.8571429 L111.428571,8.57142857 Z M120,8.57142857 L124.285714,8.57142857 L124.285714,12.8571429 L120,12.8571429 L120,8.57142857 Z M124.285714,8.57142857 L128.571429,8.57142857 L128.571429,12.8571429 L124.285714,12.8571429 L124.285714,8.57142857 Z M128.571429,8.57142857 L132.857143,8.57142857 L132.857143,12.8571429 L128.571429,12.8571429 L128.571429,8.57142857 Z M137.142857,8.57142857 L141.428571,8.57142857 L141.428571,12.8571429 L137.142857,12.8571429 L137.142857,8.57142857 Z M0,12.8571429 L4.28571429,12.8571429 L4.28571429,17.1428571 L0,17.1428571 L0,12.8571429 Z M8.57142857,12.8571429 L12.8571429,12.8571429 L12.8571429,17.1428571 L8.57142857,17.1428571 L8.57142857,12.8571429 Z M12.8571429,12.8571429 L17.1428571,12.8571429 L17.1428571,17.1428571 L12.8571429,17.1428571 L12.8571429,12.8571429 Z M17.1428571,12.8571429 L21.4285714,12.8571429 L21.4285714,17.1428571 L17.1428571,17.1428571 L17.1428571,12.8571429 Z M25.7142857,12.8571429 L30,12.8571429 L30,17.1428571 L25.7142857,17.1428571 L25.7142857,12.8571429 Z M34.2857143,12.8571429 L38.5714286,12.8571429 L38.5714286,17.1428571 L34.2857143,17.1428571 L34.2857143,12.8571429 Z M38.5714286,12.8571429 L42.8571429,12.8571429 L42.8571429,17.1428571 L38.5714286,17.1428571 L38.5714286,12.8571429 Z M47.1428571,12.8571429 L51.4285714,12.8571429 L51.4285714,17.1428571 L47.1428571,17.1428571 L47.1428571,12.8571429 Z M72.8571429,12.8571429 L77.1428571,12.8571429 L77.1428571,17.1428571 L72.8571429,17.1428571 L72.8571429,12.8571429 Z M94.2857143,12.8571429 L98.5714286,12.8571429 L98.5714286,17.1428571 L94.2857143,17.1428571 L94.2857143,12.8571429 Z M111.428571,12.8571429 L115.714286,12.8571429 L115.714286,17.1428571 L111.428571,17.1428571 L111.428571,12.8571429 Z M120,12.8571429 L124.285714,12.8571429 L124.285714,17.1428571 L120,17.1428571 L120,12.8571429 Z M124.285714,12.8571429 L128.571429,12.8571429 L128.571429,17.1428571 L124.285714,17.1428571 L124.285714,12.8571429 Z M128.571429,12.8571429 L132.857143,12.8571429 L132.857143,17.1428571 L128.571429,17.1428571 L128.571429,12.8571429 Z M137.142857,12.8571429 L141.428571,12.8571429 L141.428571,17.1428571 L137.142857,17.1428571 L137.142857,12.8571429 Z M0,17.1428571 L4.28571429,17.1428571 L4.28571429,21.4285714 L0,21.4285714 L0,17.1428571 Z M8.57142857,17.1428571 L12.8571429,17.1428571 L12.8571429,21.4285714 L8.57142857,21.4285714 L8.57142857,17.1428571 Z M12.8571429,17.1428571 L17.1428571,17.1428571 L17.1428571,21.4285714 L12.8571429,21.4285714 L12.8571429,17.1428571 Z M17.1428571,17.1428571 L21.4285714,17.1428571 L21.4285714,21.4285714 L17.1428571,21.4285714 L17.1428571,17.1428571 Z M25.7142857,17.1428571 L30,17.1428571 L30,21.4285714 L25.7142857,21.4285714 L25.7142857,17.1428571 Z M42.8571429,17.1428571 L47.1428571,17.1428571 L47.1428571,21.4285714 L42.8571429,21.4285714 L42.8571429,17.1428571 Z M51.4285714,17.1428571 L55.7142857,17.1428571 L55.7142857,21.4285714 L51.4285714,21.4285714 L51.4285714,17.1428571 Z M55.7142857,17.1428571 L60,17.1428571 L60,21.4285714 L55.7142857,21.4285714 L55.7142857,17.1428571 Z M60,17.1428571 L64.2857143,17.1428571 L64.2857143,21.4285714 L60,21.4285714 L60,17.1428571 Z M64.2857143,17.1428571 L68.5714286,17.1428571 L68.5714286,21.4285714 L64.2857143,21.4285714 L64.2857143,17.1428571 Z M81.4285714,17.1428571 L85.7142857,17.1428571 L85.7142857,21.4285714 L81.4285714,21.4285714 L81.4285714,17.1428571 Z M85.7142857,17.1428571 L90,17.1428571 L90,21.4285714 L85.7142857,21.4285714 L85.7142857,17.1428571 Z M90,17.1428571 L94.2857143,17.1428571 L94.2857143,21.4285714 L90,21.4285714 L90,17.1428571 Z M98.5714286,17.1428571 L102.857143,17.1428571 L102.857143,21.4285714 L98.5714286,21.4285714 L98.5714286,17.1428571 Z M111.428571,17.1428571 L115.714286,17.1428571 L115.714286,21.4285714 L111.428571,21.4285714 L111.428571,17.1428571 Z M120,17.1428571 L124.285714,17.1428571 L124.285714,21.4285714 L120,21.4285714 L120,17.1428571 Z M124.285714,17.1428571 L128.571429,17.1428571 L128.571429,21.4285714 L124.285714,21.4285714 L124.285714,17.1428571 Z M128.571429,17.1428571 L132.857143,17.1428571 L132.857143,21.4285714 L128.571429,21.4285714 L128.571429,17.1428571 Z M137.142857,17.1428571 L141.428571,17.1428571 L141.428571,21.4285714 L137.142857,21.4285714 L137.142857,17.1428571 Z M0,21.4285714 L4.28571429,21.4285714 L4.28571429,25.7142857 L0,25.7142857 L0,21.4285714 Z M25.7142857,21.4285714 L30,21.4285714 L30,25.7142857 L25.7142857,25.7142857 L25.7142857,21.4285714 Z M34.2857143,21.4285714 L38.5714286,21.4285714 L38.5714286,25.7142857 L34.2857143,25.7142857 L34.2857143,21.4285714 Z M42.8571429,21.4285714 L47.1428571,21.4285714 L47.1428571,25.7142857 L42.8571429,25.7142857 L42.8571429,21.4285714 Z M55.7142857,21.4285714 L60,21.4285714 L60,25.7142857 L55.7142857,25.7142857 L55.7142857,21.4285714 Z M60,21.4285714 L64.2857143,21.4285714 L64.2857143,25.7142857 L60,25.7142857 L60,21.4285714 Z M64.2857143,21.4285714 L68.5714286,21.4285714 L68.5714286,25.7142857 L64.2857143,25.7142857 L64.2857143,21.4285714 Z M72.8571429,21.4285714 L77.1428571,21.4285714 L77.1428571,25.7142857 L72.8571429,25.7142857 L72.8571429,21.4285714 Z M85.7142857,21.4285714 L90,21.4285714 L90,25.7142857 L85.7142857,25.7142857 L85.7142857,21.4285714 Z M102.857143,21.4285714 L107.142857,21.4285714 L107.142857,25.7142857 L102.857143,25.7142857 L102.857143,21.4285714 Z M111.428571,21.4285714 L115.714286,21.4285714 L115.714286,25.7142857 L111.428571,25.7142857 L111.428571,21.4285714 Z M137.142857,21.4285714 L141.428571,21.4285714 L141.428571,25.7142857 L137.142857,25.7142857 L137.142857,21.4285714 Z M0,25.7142857 L4.28571429,25.7142857 L4.28571429,30 L0,30 L0,25.7142857 Z M4.28571429,25.7142857 L8.57142857,25.7142857 L8.57142857,30 L4.28571429,30 L4.28571429,25.7142857 Z M8.57142857,25.7142857 L12.8571429,25.7142857 L12.8571429,30 L8.57142857,30 L8.57142857,25.7142857 Z M12.8571429,25.7142857 L17.1428571,25.7142857 L17.1428571,30 L12.8571429,30 L12.8571429,25.7142857 Z M17.1428571,25.7142857 L21.4285714,25.7142857 L21.4285714,30 L17.1428571,30 L17.1428571,25.7142857 Z M21.4285714,25.7142857 L25.7142857,25.7142857 L25.7142857,30 L21.4285714,30 L21.4285714,25.7142857 Z M25.7142857,25.7142857 L30,25.7142857 L30,30 L25.7142857,30 L25.7142857,25.7142857 Z M34.2857143,25.7142857 L38.5714286,25.7142857 L38.5714286,30 L34.2857143,30 L34.2857143,25.7142857 Z M42.8571429,25.7142857 L47.1428571,25.7142857 L47.1428571,30 L42.8571429,30 L42.8571429,25.7142857 Z M51.4285714,25.7142857 L55.7142857,25.7142857 L55.7142857,30 L51.4285714,30 L51.4285714,25.7142857 Z M60,25.7142857 L64.2857143,25.7142857 L64.2857143,30 L60,30 L60,25.7142857 Z M68.5714286,25.7142857 L72.8571429,25.7142857 L72.8571429,30 L68.5714286,30 L68.5714286,25.7142857 Z M77.1428571,25.7142857 L81.4285714,25.7142857 L81.4285714,30 L77.1428571,30 L77.1428571,25.7142857 Z M85.7142857,25.7142857 L90,25.7142857 L90,30 L85.7142857,30 L85.7142857,25.7142857 Z M94.2857143,25.7142857 L98.5714286,25.7142857 L98.5714286,30 L94.2857143,30 L94.2857143,25.7142857 Z M102.857143,25.7142857 L107.142857,25.7142857 L107.142857,30 L102.857143,30 L102.857143,25.7142857 Z M111.428571,25.7142857 L115.714286,25.7142857 L115.714286,30 L111.428571,30 L111.428571,25.7142857 Z M115.714286,25.7142857 L120,25.7142857 L120,30 L115.714286,30 L115.714286,25.7142857 Z M120,25.7142857 L124.285714,25.7142857 L124.285714,30 L120,30 L120,25.7142857 Z M124.285714,25.7142857 L128.571429,25.7142857 L128.571429,30 L124.285714,30 L124.285714,25.7142857 Z M128.571429,25.7142857 L132.857143,25.7142857 L132.857143,30 L128.571429,30 L128.571429,25.7142857 Z M132.857143,25.7142857 L137.142857,25.7142857 L137.142857,30 L132.857143,30 L132.857143,25.7142857 Z M137.142857,25.7142857 L141.428571,25.7142857 L141.428571,30 L137.142857,30 L137.142857,25.7142857 Z M51.4285714,30 L55.7142857,30 L55.7142857,34.2857143 L51.4285714,34.2857143 L51.4285714,30 Z M55.7142857,30 L60,30 L60,34.2857143 L55.7142857,34.2857143 L55.7142857,30 Z M64.2857143,30 L68.5714286,30 L68.5714286,34.2857143 L64.2857143,34.2857143 L64.2857143,30 Z M77.1428571,30 L81.4285714,30 L81.4285714,34.2857143 L77.1428571,34.2857143 L77.1428571,30 Z M81.4285714,30 L85.7142857,30 L85.7142857,34.2857143 L81.4285714,34.2857143 L81.4285714,30 Z M85.7142857,30 L90,30 L90,34.2857143 L85.7142857,34.2857143 L85.7142857,30 Z M90,30 L94.2857143,30 L94.2857143,34.2857143 L90,34.2857143 L90,30 Z M94.2857143,30 L98.5714286,30 L98.5714286,34.2857143 L94.2857143,34.2857143 L94.2857143,30 Z M98.5714286,30 L102.857143,30 L102.857143,34.2857143 L98.5714286,34.2857143 L98.5714286,30 Z M102.857143,30 L107.142857,30 L107.142857,34.2857143 L102.857143,34.2857143 L102.857143,30 Z M0,34.2857143 L4.28571429,34.2857143 L4.28571429,38.5714286 L0,38.5714286 L0,34.2857143 Z M4.28571429,34.2857143 L8.57142857,34.2857143 L8.57142857,38.5714286 L4.28571429,38.5714286 L4.28571429,34.2857143 Z M8.57142857,34.2857143 L12.8571429,34.2857143 L12.8571429,38.5714286 L8.57142857,38.5714286 L8.57142857,34.2857143 Z M12.8571429,34.2857143 L17.1428571,34.2857143 L17.1428571,38.5714286 L12.8571429,38.5714286 L12.8571429,34.2857143 Z M17.1428571,34.2857143 L21.4285714,34.2857143 L21.4285714,38.5714286 L17.1428571,38.5714286 L17.1428571,34.2857143 Z M25.7142857,34.2857143 L30,34.2857143 L30,38.5714286 L25.7142857,38.5714286 L25.7142857,34.2857143 Z M30,34.2857143 L34.2857143,34.2857143 L34.2857143,38.5714286 L30,38.5714286 L30,34.2857143 Z M34.2857143,34.2857143 L38.5714286,34.2857143 L38.5714286,38.5714286 L34.2857143,38.5714286 L34.2857143,34.2857143 Z M38.5714286,34.2857143 L42.8571429,34.2857143 L42.8571429,38.5714286 L38.5714286,38.5714286 L38.5714286,34.2857143 Z M42.8571429,34.2857143 L47.1428571,34.2857143 L47.1428571,38.5714286 L42.8571429,38.5714286 L42.8571429,34.2857143 Z M51.4285714,34.2857143 L55.7142857,34.2857143 L55.7142857,38.5714286 L51.4285714,38.5714286 L51.4285714,34.2857143 Z M60,34.2857143 L64.2857143,34.2857143 L64.2857143,38.5714286 L60,38.5714286 L60,34.2857143 Z M64.2857143,34.2857143 L68.5714286,34.2857143 L68.5714286,38.5714286 L64.2857143,38.5714286 L64.2857143,34.2857143 Z M72.8571429,34.2857143 L77.1428571,34.2857143 L77.1428571,38.5714286 L72.8571429,38.5714286 L72.8571429,34.2857143 Z M81.4285714,34.2857143 L85.7142857,34.2857143 L85.7142857,38.5714286 L81.4285714,38.5714286 L81.4285714,34.2857143 Z M85.7142857,34.2857143 L90,34.2857143 L90,38.5714286 L85.7142857,38.5714286 L85.7142857,34.2857143 Z M94.2857143,34.2857143 L98.5714286,34.2857143 L98.5714286,38.5714286 L94.2857143,38.5714286 L94.2857143,34.2857143 Z M107.142857,34.2857143 L111.428571,34.2857143 L111.428571,38.5714286 L107.142857,38.5714286 L107.142857,34.2857143 Z M115.714286,34.2857143 L120,34.2857143 L120,38.5714286 L115.714286,38.5714286 L115.714286,34.2857143 Z M124.285714,34.2857143 L128.571429,34.2857143 L128.571429,38.5714286 L124.285714,38.5714286 L124.285714,34.2857143 Z M132.857143,34.2857143 L137.142857,34.2857143 L137.142857,38.5714286 L132.857143,38.5714286 L132.857143,34.2857143 Z M0,38.5714286 L4.28571429,38.5714286 L4.28571429,42.8571429 L0,42.8571429 L0,38.5714286 Z M4.28571429,38.5714286 L8.57142857,38.5714286 L8.57142857,42.8571429 L4.28571429,42.8571429 L4.28571429,38.5714286 Z M12.8571429,38.5714286 L17.1428571,38.5714286 L17.1428571,42.8571429 L12.8571429,42.8571429 L12.8571429,38.5714286 Z M17.1428571,38.5714286 L21.4285714,38.5714286 L21.4285714,42.8571429 L17.1428571,42.8571429 L17.1428571,38.5714286 Z M21.4285714,38.5714286 L25.7142857,38.5714286 L25.7142857,42.8571429 L21.4285714,42.8571429 L21.4285714,38.5714286 Z M34.2857143,38.5714286 L38.5714286,38.5714286 L38.5714286,42.8571429 L34.2857143,42.8571429 L34.2857143,38.5714286 Z M38.5714286,38.5714286 L42.8571429,38.5714286 L42.8571429,42.8571429 L38.5714286,42.8571429 L38.5714286,38.5714286 Z M64.2857143,38.5714286 L68.5714286,38.5714286 L68.5714286,42.8571429 L64.2857143,42.8571429 L64.2857143,38.5714286 Z M72.8571429,38.5714286 L77.1428571,38.5714286 L77.1428571,42.8571429 L72.8571429,42.8571429 L72.8571429,38.5714286 Z M77.1428571,38.5714286 L81.4285714,38.5714286 L81.4285714,42.8571429 L77.1428571,42.8571429 L77.1428571,38.5714286 Z M81.4285714,38.5714286 L85.7142857,38.5714286 L85.7142857,42.8571429 L81.4285714,42.8571429 L81.4285714,38.5714286 Z M90,38.5714286 L94.2857143,38.5714286 L94.2857143,42.8571429 L90,42.8571429 L90,38.5714286 Z M98.5714286,38.5714286 L102.857143,38.5714286 L102.857143,42.8571429 L98.5714286,42.8571429 L98.5714286,38.5714286 Z M111.428571,38.5714286 L115.714286,38.5714286 L115.714286,42.8571429 L111.428571,42.8571429 L111.428571,38.5714286 Z M115.714286,38.5714286 L120,38.5714286 L120,42.8571429 L115.714286,42.8571429 L115.714286,38.5714286 Z M128.571429,38.5714286 L132.857143,38.5714286 L132.857143,42.8571429 L128.571429,42.8571429 L128.571429,38.5714286 Z M132.857143,38.5714286 L137.142857,38.5714286 L137.142857,42.8571429 L132.857143,42.8571429 L132.857143,38.5714286 Z M137.142857,38.5714286 L141.428571,38.5714286 L141.428571,42.8571429 L137.142857,42.8571429 L137.142857,38.5714286 Z M8.57142857,42.8571429 L12.8571429,42.8571429 L12.8571429,47.1428571 L8.57142857,47.1428571 L8.57142857,42.8571429 Z M25.7142857,42.8571429 L30,42.8571429 L30,47.1428571 L25.7142857,47.1428571 L25.7142857,42.8571429 Z M38.5714286,42.8571429 L42.8571429,42.8571429 L42.8571429,47.1428571 L38.5714286,47.1428571 L38.5714286,42.8571429 Z M47.1428571,42.8571429 L51.4285714,42.8571429 L51.4285714,47.1428571 L47.1428571,47.1428571 L47.1428571,42.8571429 Z M51.4285714,42.8571429 L55.7142857,42.8571429 L55.7142857,47.1428571 L51.4285714,47.1428571 L51.4285714,42.8571429 Z M77.1428571,42.8571429 L81.4285714,42.8571429 L81.4285714,47.1428571 L77.1428571,47.1428571 L77.1428571,42.8571429 Z M85.7142857,42.8571429 L90,42.8571429 L90,47.1428571 L85.7142857,47.1428571 L85.7142857,42.8571429 Z M90,42.8571429 L94.2857143,42.8571429 L94.2857143,47.1428571 L90,47.1428571 L90,42.8571429 Z M94.2857143,42.8571429 L98.5714286,42.8571429 L98.5714286,47.1428571 L94.2857143,47.1428571 L94.2857143,42.8571429 Z M107.142857,42.8571429 L111.428571,42.8571429 L111.428571,47.1428571 L107.142857,47.1428571 L107.142857,42.8571429 Z M111.428571,42.8571429 L115.714286,42.8571429 L115.714286,47.1428571 L111.428571,47.1428571 L111.428571,42.8571429 Z M124.285714,42.8571429 L128.571429,42.8571429 L128.571429,47.1428571 L124.285714,47.1428571 L124.285714,42.8571429 Z M132.857143,42.8571429 L137.142857,42.8571429 L137.142857,47.1428571 L132.857143,47.1428571 L132.857143,42.8571429 Z M0,47.1428571 L4.28571429,47.1428571 L4.28571429,51.4285714 L0,51.4285714 L0,47.1428571 Z M4.28571429,47.1428571 L8.57142857,47.1428571 L8.57142857,51.4285714 L4.28571429,51.4285714 L4.28571429,47.1428571 Z M12.8571429,47.1428571 L17.1428571,47.1428571 L17.1428571,51.4285714 L12.8571429,51.4285714 L12.8571429,47.1428571 Z M21.4285714,47.1428571 L25.7142857,47.1428571 L25.7142857,51.4285714 L21.4285714,51.4285714 L21.4285714,47.1428571 Z M38.5714286,47.1428571 L42.8571429,47.1428571 L42.8571429,51.4285714 L38.5714286,51.4285714 L38.5714286,47.1428571 Z M42.8571429,47.1428571 L47.1428571,47.1428571 L47.1428571,51.4285714 L42.8571429,51.4285714 L42.8571429,47.1428571 Z M47.1428571,47.1428571 L51.4285714,47.1428571 L51.4285714,51.4285714 L47.1428571,51.4285714 L47.1428571,47.1428571 Z M60,47.1428571 L64.2857143,47.1428571 L64.2857143,51.4285714 L60,51.4285714 L60,47.1428571 Z M64.2857143,47.1428571 L68.5714286,47.1428571 L68.5714286,51.4285714 L64.2857143,51.4285714 L64.2857143,47.1428571 Z M68.5714286,47.1428571 L72.8571429,47.1428571 L72.8571429,51.4285714 L68.5714286,51.4285714 L68.5714286,47.1428571 Z M81.4285714,47.1428571 L85.7142857,47.1428571 L85.7142857,51.4285714 L81.4285714,51.4285714 L81.4285714,47.1428571 Z M85.7142857,47.1428571 L90,47.1428571 L90,51.4285714 L85.7142857,51.4285714 L85.7142857,47.1428571 Z M90,47.1428571 L94.2857143,47.1428571 L94.2857143,51.4285714 L90,51.4285714 L90,47.1428571 Z M94.2857143,47.1428571 L98.5714286,47.1428571 L98.5714286,51.4285714 L94.2857143,51.4285714 L94.2857143,47.1428571 Z M107.142857,47.1428571 L111.428571,47.1428571 L111.428571,51.4285714 L107.142857,51.4285714 L107.142857,47.1428571 Z M128.571429,47.1428571 L132.857143,47.1428571 L132.857143,51.4285714 L128.571429,51.4285714 L128.571429,47.1428571 Z M17.1428571,51.4285714 L21.4285714,51.4285714 L21.4285714,55.7142857 L17.1428571,55.7142857 L17.1428571,51.4285714 Z M25.7142857,51.4285714 L30,51.4285714 L30,55.7142857 L25.7142857,55.7142857 L25.7142857,51.4285714 Z M38.5714286,51.4285714 L42.8571429,51.4285714 L42.8571429,55.7142857 L38.5714286,55.7142857 L38.5714286,51.4285714 Z M47.1428571,51.4285714 L51.4285714,51.4285714 L51.4285714,55.7142857 L47.1428571,55.7142857 L47.1428571,51.4285714 Z M68.5714286,51.4285714 L72.8571429,51.4285714 L72.8571429,55.7142857 L68.5714286,55.7142857 L68.5714286,51.4285714 Z M72.8571429,51.4285714 L77.1428571,51.4285714 L77.1428571,55.7142857 L72.8571429,55.7142857 L72.8571429,51.4285714 Z M81.4285714,51.4285714 L85.7142857,51.4285714 L85.7142857,55.7142857 L81.4285714,55.7142857 L81.4285714,51.4285714 Z M94.2857143,51.4285714 L98.5714286,51.4285714 L98.5714286,55.7142857 L94.2857143,55.7142857 L94.2857143,51.4285714 Z M102.857143,51.4285714 L107.142857,51.4285714 L107.142857,55.7142857 L102.857143,55.7142857 L102.857143,51.4285714 Z M107.142857,51.4285714 L111.428571,51.4285714 L111.428571,55.7142857 L107.142857,55.7142857 L107.142857,51.4285714 Z M115.714286,51.4285714 L120,51.4285714 L120,55.7142857 L115.714286,55.7142857 L115.714286,51.4285714 Z M120,51.4285714 L124.285714,51.4285714 L124.285714,55.7142857 L120,55.7142857 L120,51.4285714 Z M124.285714,51.4285714 L128.571429,51.4285714 L128.571429,55.7142857 L124.285714,55.7142857 L124.285714,51.4285714 Z M0,55.7142857 L4.28571429,55.7142857 L4.28571429,60 L0,60 L0,55.7142857 Z M8.57142857,55.7142857 L12.8571429,55.7142857 L12.8571429,60 L8.57142857,60 L8.57142857,55.7142857 Z M21.4285714,55.7142857 L25.7142857,55.7142857 L25.7142857,60 L21.4285714,60 L21.4285714,55.7142857 Z M34.2857143,55.7142857 L38.5714286,55.7142857 L38.5714286,60 L34.2857143,60 L34.2857143,55.7142857 Z M42.8571429,55.7142857 L47.1428571,55.7142857 L47.1428571,60 L42.8571429,60 L42.8571429,55.7142857 Z M51.4285714,55.7142857 L55.7142857,55.7142857 L55.7142857,60 L51.4285714,60 L51.4285714,55.7142857 Z M55.7142857,55.7142857 L60,55.7142857 L60,60 L55.7142857,60 L55.7142857,55.7142857 Z M60,55.7142857 L64.2857143,55.7142857 L64.2857143,60 L60,60 L60,55.7142857 Z M81.4285714,55.7142857 L85.7142857,55.7142857 L85.7142857,60 L81.4285714,60 L81.4285714,55.7142857 Z M98.5714286,55.7142857 L102.857143,55.7142857 L102.857143,60 L98.5714286,60 L98.5714286,55.7142857 Z M107.142857,55.7142857 L111.428571,55.7142857 L111.428571,60 L107.142857,60 L107.142857,55.7142857 Z M111.428571,55.7142857 L115.714286,55.7142857 L115.714286,60 L111.428571,60 L111.428571,55.7142857 Z M132.857143,55.7142857 L137.142857,55.7142857 L137.142857,60 L132.857143,60 L132.857143,55.7142857 Z M137.142857,55.7142857 L141.428571,55.7142857 L141.428571,60 L137.142857,60 L137.142857,55.7142857 Z M8.57142857,60 L12.8571429,60 L12.8571429,64.2857143 L8.57142857,64.2857143 L8.57142857,60 Z M12.8571429,60 L17.1428571,60 L17.1428571,64.2857143 L12.8571429,64.2857143 L12.8571429,60 Z M25.7142857,60 L30,60 L30,64.2857143 L25.7142857,64.2857143 L25.7142857,60 Z M42.8571429,60 L47.1428571,60 L47.1428571,64.2857143 L42.8571429,64.2857143 L42.8571429,60 Z M55.7142857,60 L60,60 L60,64.2857143 L55.7142857,64.2857143 L55.7142857,60 Z M60,60 L64.2857143,60 L64.2857143,64.2857143 L60,64.2857143 L60,60 Z M72.8571429,60 L77.1428571,60 L77.1428571,64.2857143 L72.8571429,64.2857143 L72.8571429,60 Z M77.1428571,60 L81.4285714,60 L81.4285714,64.2857143 L77.1428571,64.2857143 L77.1428571,60 Z M85.7142857,60 L90,60 L90,64.2857143 L85.7142857,64.2857143 L85.7142857,60 Z M90,60 L94.2857143,60 L94.2857143,64.2857143 L90,64.2857143 L90,60 Z M94.2857143,60 L98.5714286,60 L98.5714286,64.2857143 L94.2857143,64.2857143 L94.2857143,60 Z M120,60 L124.285714,60 L124.285714,64.2857143 L120,64.2857143 L120,60 Z M132.857143,60 L137.142857,60 L137.142857,64.2857143 L132.857143,64.2857143 L132.857143,60 Z M0,64.2857143 L4.28571429,64.2857143 L4.28571429,68.5714286 L0,68.5714286 L0,64.2857143 Z M8.57142857,64.2857143 L12.8571429,64.2857143 L12.8571429,68.5714286 L8.57142857,68.5714286 L8.57142857,64.2857143 Z M12.8571429,64.2857143 L17.1428571,64.2857143 L17.1428571,68.5714286 L12.8571429,68.5714286 L12.8571429,64.2857143 Z M30,64.2857143 L34.2857143,64.2857143 L34.2857143,68.5714286 L30,68.5714286 L30,64.2857143 Z M34.2857143,64.2857143 L38.5714286,64.2857143 L38.5714286,68.5714286 L34.2857143,68.5714286 L34.2857143,64.2857143 Z M38.5714286,64.2857143 L42.8571429,64.2857143 L42.8571429,68.5714286 L38.5714286,68.5714286 L38.5714286,64.2857143 Z M51.4285714,64.2857143 L55.7142857,64.2857143 L55.7142857,68.5714286 L51.4285714,68.5714286 L51.4285714,64.2857143 Z M55.7142857,64.2857143 L60,64.2857143 L60,68.5714286 L55.7142857,68.5714286 L55.7142857,64.2857143 Z M64.2857143,64.2857143 L68.5714286,64.2857143 L68.5714286,68.5714286 L64.2857143,68.5714286 L64.2857143,64.2857143 Z M85.7142857,64.2857143 L90,64.2857143 L90,68.5714286 L85.7142857,68.5714286 L85.7142857,64.2857143 Z M90,64.2857143 L94.2857143,64.2857143 L94.2857143,68.5714286 L90,68.5714286 L90,64.2857143 Z M98.5714286,64.2857143 L102.857143,64.2857143 L102.857143,68.5714286 L98.5714286,68.5714286 L98.5714286,64.2857143 Z M102.857143,64.2857143 L107.142857,64.2857143 L107.142857,68.5714286 L102.857143,68.5714286 L102.857143,64.2857143 Z M111.428571,64.2857143 L115.714286,64.2857143 L115.714286,68.5714286 L111.428571,68.5714286 L111.428571,64.2857143 Z M115.714286,64.2857143 L120,64.2857143 L120,68.5714286 L115.714286,68.5714286 L115.714286,64.2857143 Z M128.571429,64.2857143 L132.857143,64.2857143 L132.857143,68.5714286 L128.571429,68.5714286 L128.571429,64.2857143 Z M0,68.5714286 L4.28571429,68.5714286 L4.28571429,72.8571429 L0,72.8571429 L0,68.5714286 Z M17.1428571,68.5714286 L21.4285714,68.5714286 L21.4285714,72.8571429 L17.1428571,72.8571429 L17.1428571,68.5714286 Z M21.4285714,68.5714286 L25.7142857,68.5714286 L25.7142857,72.8571429 L21.4285714,72.8571429 L21.4285714,68.5714286 Z M25.7142857,68.5714286 L30,68.5714286 L30,72.8571429 L25.7142857,72.8571429 L25.7142857,68.5714286 Z M34.2857143,68.5714286 L38.5714286,68.5714286 L38.5714286,72.8571429 L34.2857143,72.8571429 L34.2857143,68.5714286 Z M38.5714286,68.5714286 L42.8571429,68.5714286 L42.8571429,72.8571429 L38.5714286,72.8571429 L38.5714286,68.5714286 Z M51.4285714,68.5714286 L55.7142857,68.5714286 L55.7142857,72.8571429 L51.4285714,72.8571429 L51.4285714,68.5714286 Z M60,68.5714286 L64.2857143,68.5714286 L64.2857143,72.8571429 L60,72.8571429 L60,68.5714286 Z M64.2857143,68.5714286 L68.5714286,68.5714286 L68.5714286,72.8571429 L64.2857143,72.8571429 L64.2857143,68.5714286 Z M68.5714286,68.5714286 L72.8571429,68.5714286 L72.8571429,72.8571429 L68.5714286,72.8571429 L68.5714286,68.5714286 Z M72.8571429,68.5714286 L77.1428571,68.5714286 L77.1428571,72.8571429 L72.8571429,72.8571429 L72.8571429,68.5714286 Z M81.4285714,68.5714286 L85.7142857,68.5714286 L85.7142857,72.8571429 L81.4285714,72.8571429 L81.4285714,68.5714286 Z M94.2857143,68.5714286 L98.5714286,68.5714286 L98.5714286,72.8571429 L94.2857143,72.8571429 L94.2857143,68.5714286 Z M107.142857,68.5714286 L111.428571,68.5714286 L111.428571,72.8571429 L107.142857,72.8571429 L107.142857,68.5714286 Z M115.714286,68.5714286 L120,68.5714286 L120,72.8571429 L115.714286,72.8571429 L115.714286,68.5714286 Z M120,68.5714286 L124.285714,68.5714286 L124.285714,72.8571429 L120,72.8571429 L120,68.5714286 Z M132.857143,68.5714286 L137.142857,68.5714286 L137.142857,72.8571429 L132.857143,72.8571429 L132.857143,68.5714286 Z M0,72.8571429 L4.28571429,72.8571429 L4.28571429,77.1428571 L0,77.1428571 L0,72.8571429 Z M4.28571429,72.8571429 L8.57142857,72.8571429 L8.57142857,77.1428571 L4.28571429,77.1428571 L4.28571429,72.8571429 Z M34.2857143,72.8571429 L38.5714286,72.8571429 L38.5714286,77.1428571 L34.2857143,77.1428571 L34.2857143,72.8571429 Z M38.5714286,72.8571429 L42.8571429,72.8571429 L42.8571429,77.1428571 L38.5714286,77.1428571 L38.5714286,72.8571429 Z M68.5714286,72.8571429 L72.8571429,72.8571429 L72.8571429,77.1428571 L68.5714286,77.1428571 L68.5714286,72.8571429 Z M72.8571429,72.8571429 L77.1428571,72.8571429 L77.1428571,77.1428571 L72.8571429,77.1428571 L72.8571429,72.8571429 Z M77.1428571,72.8571429 L81.4285714,72.8571429 L81.4285714,77.1428571 L77.1428571,77.1428571 L77.1428571,72.8571429 Z M81.4285714,72.8571429 L85.7142857,72.8571429 L85.7142857,77.1428571 L81.4285714,77.1428571 L81.4285714,72.8571429 Z M85.7142857,72.8571429 L90,72.8571429 L90,77.1428571 L85.7142857,77.1428571 L85.7142857,72.8571429 Z M98.5714286,72.8571429 L102.857143,72.8571429 L102.857143,77.1428571 L98.5714286,77.1428571 L98.5714286,72.8571429 Z M111.428571,72.8571429 L115.714286,72.8571429 L115.714286,77.1428571 L111.428571,77.1428571 L111.428571,72.8571429 Z M124.285714,72.8571429 L128.571429,72.8571429 L128.571429,77.1428571 L124.285714,77.1428571 L124.285714,72.8571429 Z M132.857143,72.8571429 L137.142857,72.8571429 L137.142857,77.1428571 L132.857143,77.1428571 L132.857143,72.8571429 Z M137.142857,72.8571429 L141.428571,72.8571429 L141.428571,77.1428571 L137.142857,77.1428571 L137.142857,72.8571429 Z M0,77.1428571 L4.28571429,77.1428571 L4.28571429,81.4285714 L0,81.4285714 L0,77.1428571 Z M12.8571429,77.1428571 L17.1428571,77.1428571 L17.1428571,81.4285714 L12.8571429,81.4285714 L12.8571429,77.1428571 Z M17.1428571,77.1428571 L21.4285714,77.1428571 L21.4285714,81.4285714 L17.1428571,81.4285714 L17.1428571,77.1428571 Z M21.4285714,77.1428571 L25.7142857,77.1428571 L25.7142857,81.4285714 L21.4285714,81.4285714 L21.4285714,77.1428571 Z M25.7142857,77.1428571 L30,77.1428571 L30,81.4285714 L25.7142857,81.4285714 L25.7142857,77.1428571 Z M38.5714286,77.1428571 L42.8571429,77.1428571 L42.8571429,81.4285714 L38.5714286,81.4285714 L38.5714286,77.1428571 Z M42.8571429,77.1428571 L47.1428571,77.1428571 L47.1428571,81.4285714 L42.8571429,81.4285714 L42.8571429,77.1428571 Z M47.1428571,77.1428571 L51.4285714,77.1428571 L51.4285714,81.4285714 L47.1428571,81.4285714 L47.1428571,77.1428571 Z M51.4285714,77.1428571 L55.7142857,77.1428571 L55.7142857,81.4285714 L51.4285714,81.4285714 L51.4285714,77.1428571 Z M68.5714286,77.1428571 L72.8571429,77.1428571 L72.8571429,81.4285714 L68.5714286,81.4285714 L68.5714286,77.1428571 Z M77.1428571,77.1428571 L81.4285714,77.1428571 L81.4285714,81.4285714 L77.1428571,81.4285714 L77.1428571,77.1428571 Z M85.7142857,77.1428571 L90,77.1428571 L90,81.4285714 L85.7142857,81.4285714 L85.7142857,77.1428571 Z M94.2857143,77.1428571 L98.5714286,77.1428571 L98.5714286,81.4285714 L94.2857143,81.4285714 L94.2857143,77.1428571 Z M102.857143,77.1428571 L107.142857,77.1428571 L107.142857,81.4285714 L102.857143,81.4285714 L102.857143,77.1428571 Z M124.285714,77.1428571 L128.571429,77.1428571 L128.571429,81.4285714 L124.285714,81.4285714 L124.285714,77.1428571 Z M132.857143,77.1428571 L137.142857,77.1428571 L137.142857,81.4285714 L132.857143,81.4285714 L132.857143,77.1428571 Z M4.28571429,81.4285714 L8.57142857,81.4285714 L8.57142857,85.7142857 L4.28571429,85.7142857 L4.28571429,81.4285714 Z M8.57142857,81.4285714 L12.8571429,81.4285714 L12.8571429,85.7142857 L8.57142857,85.7142857 L8.57142857,81.4285714 Z M47.1428571,81.4285714 L51.4285714,81.4285714 L51.4285714,85.7142857 L47.1428571,85.7142857 L47.1428571,81.4285714 Z M60,81.4285714 L64.2857143,81.4285714 L64.2857143,85.7142857 L60,85.7142857 L60,81.4285714 Z M64.2857143,81.4285714 L68.5714286,81.4285714 L68.5714286,85.7142857 L64.2857143,85.7142857 L64.2857143,81.4285714 Z M81.4285714,81.4285714 L85.7142857,81.4285714 L85.7142857,85.7142857 L81.4285714,85.7142857 L81.4285714,81.4285714 Z M85.7142857,81.4285714 L90,81.4285714 L90,85.7142857 L85.7142857,85.7142857 L85.7142857,81.4285714 Z M90,81.4285714 L94.2857143,81.4285714 L94.2857143,85.7142857 L90,85.7142857 L90,81.4285714 Z M94.2857143,81.4285714 L98.5714286,81.4285714 L98.5714286,85.7142857 L94.2857143,85.7142857 L94.2857143,81.4285714 Z M98.5714286,81.4285714 L102.857143,81.4285714 L102.857143,85.7142857 L98.5714286,85.7142857 L98.5714286,81.4285714 Z M107.142857,81.4285714 L111.428571,81.4285714 L111.428571,85.7142857 L107.142857,85.7142857 L107.142857,81.4285714 Z M115.714286,81.4285714 L120,81.4285714 L120,85.7142857 L115.714286,85.7142857 L115.714286,81.4285714 Z M120,81.4285714 L124.285714,81.4285714 L124.285714,85.7142857 L120,85.7142857 L120,81.4285714 Z M128.571429,81.4285714 L132.857143,81.4285714 L132.857143,85.7142857 L128.571429,85.7142857 L128.571429,81.4285714 Z M17.1428571,85.7142857 L21.4285714,85.7142857 L21.4285714,90 L17.1428571,90 L17.1428571,85.7142857 Z M21.4285714,85.7142857 L25.7142857,85.7142857 L25.7142857,90 L21.4285714,90 L21.4285714,85.7142857 Z M25.7142857,85.7142857 L30,85.7142857 L30,90 L25.7142857,90 L25.7142857,85.7142857 Z M38.5714286,85.7142857 L42.8571429,85.7142857 L42.8571429,90 L38.5714286,90 L38.5714286,85.7142857 Z M42.8571429,85.7142857 L47.1428571,85.7142857 L47.1428571,90 L42.8571429,90 L42.8571429,85.7142857 Z M47.1428571,85.7142857 L51.4285714,85.7142857 L51.4285714,90 L47.1428571,90 L47.1428571,85.7142857 Z M68.5714286,85.7142857 L72.8571429,85.7142857 L72.8571429,90 L68.5714286,90 L68.5714286,85.7142857 Z M72.8571429,85.7142857 L77.1428571,85.7142857 L77.1428571,90 L72.8571429,90 L72.8571429,85.7142857 Z M81.4285714,85.7142857 L85.7142857,85.7142857 L85.7142857,90 L81.4285714,90 L81.4285714,85.7142857 Z M94.2857143,85.7142857 L98.5714286,85.7142857 L98.5714286,90 L94.2857143,90 L94.2857143,85.7142857 Z M98.5714286,85.7142857 L102.857143,85.7142857 L102.857143,90 L98.5714286,90 L98.5714286,85.7142857 Z M102.857143,85.7142857 L107.142857,85.7142857 L107.142857,90 L102.857143,90 L102.857143,85.7142857 Z M107.142857,85.7142857 L111.428571,85.7142857 L111.428571,90 L107.142857,90 L107.142857,85.7142857 Z M115.714286,85.7142857 L120,85.7142857 L120,90 L115.714286,90 L115.714286,85.7142857 Z M120,85.7142857 L124.285714,85.7142857 L124.285714,90 L120,90 L120,85.7142857 Z M132.857143,85.7142857 L137.142857,85.7142857 L137.142857,90 L132.857143,90 L132.857143,85.7142857 Z M0,90 L4.28571429,90 L4.28571429,94.2857143 L0,94.2857143 L0,90 Z M4.28571429,90 L8.57142857,90 L8.57142857,94.2857143 L4.28571429,94.2857143 L4.28571429,90 Z M8.57142857,90 L12.8571429,90 L12.8571429,94.2857143 L8.57142857,94.2857143 L8.57142857,90 Z M17.1428571,90 L21.4285714,90 L21.4285714,94.2857143 L17.1428571,94.2857143 L17.1428571,90 Z M30,90 L34.2857143,90 L34.2857143,94.2857143 L30,94.2857143 L30,90 Z M34.2857143,90 L38.5714286,90 L38.5714286,94.2857143 L34.2857143,94.2857143 L34.2857143,90 Z M42.8571429,90 L47.1428571,90 L47.1428571,94.2857143 L42.8571429,94.2857143 L42.8571429,90 Z M51.4285714,90 L55.7142857,90 L55.7142857,94.2857143 L51.4285714,94.2857143 L51.4285714,90 Z M55.7142857,90 L60,90 L60,94.2857143 L55.7142857,94.2857143 L55.7142857,90 Z M60,90 L64.2857143,90 L64.2857143,94.2857143 L60,94.2857143 L60,90 Z M64.2857143,90 L68.5714286,90 L68.5714286,94.2857143 L64.2857143,94.2857143 L64.2857143,90 Z M72.8571429,90 L77.1428571,90 L77.1428571,94.2857143 L72.8571429,94.2857143 L72.8571429,90 Z M77.1428571,90 L81.4285714,90 L81.4285714,94.2857143 L77.1428571,94.2857143 L77.1428571,90 Z M81.4285714,90 L85.7142857,90 L85.7142857,94.2857143 L81.4285714,94.2857143 L81.4285714,90 Z M85.7142857,90 L90,90 L90,94.2857143 L85.7142857,94.2857143 L85.7142857,90 Z M90,90 L94.2857143,90 L94.2857143,94.2857143 L90,94.2857143 L90,90 Z M94.2857143,90 L98.5714286,90 L98.5714286,94.2857143 L94.2857143,94.2857143 L94.2857143,90 Z M98.5714286,90 L102.857143,90 L102.857143,94.2857143 L98.5714286,94.2857143 L98.5714286,90 Z M102.857143,90 L107.142857,90 L107.142857,94.2857143 L102.857143,94.2857143 L102.857143,90 Z M107.142857,90 L111.428571,90 L111.428571,94.2857143 L107.142857,94.2857143 L107.142857,90 Z M111.428571,90 L115.714286,90 L115.714286,94.2857143 L111.428571,94.2857143 L111.428571,90 Z M124.285714,90 L128.571429,90 L128.571429,94.2857143 L124.285714,94.2857143 L124.285714,90 Z M132.857143,90 L137.142857,90 L137.142857,94.2857143 L132.857143,94.2857143 L132.857143,90 Z M137.142857,90 L141.428571,90 L141.428571,94.2857143 L137.142857,94.2857143 L137.142857,90 Z M0,94.2857143 L4.28571429,94.2857143 L4.28571429,98.5714286 L0,98.5714286 L0,94.2857143 Z M8.57142857,94.2857143 L12.8571429,94.2857143 L12.8571429,98.5714286 L8.57142857,98.5714286 L8.57142857,94.2857143 Z M21.4285714,94.2857143 L25.7142857,94.2857143 L25.7142857,98.5714286 L21.4285714,98.5714286 L21.4285714,94.2857143 Z M25.7142857,94.2857143 L30,94.2857143 L30,98.5714286 L25.7142857,98.5714286 L25.7142857,94.2857143 Z M34.2857143,94.2857143 L38.5714286,94.2857143 L38.5714286,98.5714286 L34.2857143,98.5714286 L34.2857143,94.2857143 Z M38.5714286,94.2857143 L42.8571429,94.2857143 L42.8571429,98.5714286 L38.5714286,98.5714286 L38.5714286,94.2857143 Z M42.8571429,94.2857143 L47.1428571,94.2857143 L47.1428571,98.5714286 L42.8571429,98.5714286 L42.8571429,94.2857143 Z M55.7142857,94.2857143 L60,94.2857143 L60,98.5714286 L55.7142857,98.5714286 L55.7142857,94.2857143 Z M60,94.2857143 L64.2857143,94.2857143 L64.2857143,98.5714286 L60,98.5714286 L60,94.2857143 Z M64.2857143,94.2857143 L68.5714286,94.2857143 L68.5714286,98.5714286 L64.2857143,98.5714286 L64.2857143,94.2857143 Z M72.8571429,94.2857143 L77.1428571,94.2857143 L77.1428571,98.5714286 L72.8571429,98.5714286 L72.8571429,94.2857143 Z M85.7142857,94.2857143 L90,94.2857143 L90,98.5714286 L85.7142857,98.5714286 L85.7142857,94.2857143 Z M94.2857143,94.2857143 L98.5714286,94.2857143 L98.5714286,98.5714286 L94.2857143,98.5714286 L94.2857143,94.2857143 Z M107.142857,94.2857143 L111.428571,94.2857143 L111.428571,98.5714286 L107.142857,98.5714286 L107.142857,94.2857143 Z M115.714286,94.2857143 L120,94.2857143 L120,98.5714286 L115.714286,98.5714286 L115.714286,94.2857143 Z M120,94.2857143 L124.285714,94.2857143 L124.285714,98.5714286 L120,98.5714286 L120,94.2857143 Z M124.285714,94.2857143 L128.571429,94.2857143 L128.571429,98.5714286 L124.285714,98.5714286 L124.285714,94.2857143 Z M132.857143,94.2857143 L137.142857,94.2857143 L137.142857,98.5714286 L132.857143,98.5714286 L132.857143,94.2857143 Z M0,98.5714286 L4.28571429,98.5714286 L4.28571429,102.857143 L0,102.857143 L0,98.5714286 Z M8.57142857,98.5714286 L12.8571429,98.5714286 L12.8571429,102.857143 L8.57142857,102.857143 L8.57142857,98.5714286 Z M17.1428571,98.5714286 L21.4285714,98.5714286 L21.4285714,102.857143 L17.1428571,102.857143 L17.1428571,98.5714286 Z M21.4285714,98.5714286 L25.7142857,98.5714286 L25.7142857,102.857143 L21.4285714,102.857143 L21.4285714,98.5714286 Z M30,98.5714286 L34.2857143,98.5714286 L34.2857143,102.857143 L30,102.857143 L30,98.5714286 Z M42.8571429,98.5714286 L47.1428571,98.5714286 L47.1428571,102.857143 L42.8571429,102.857143 L42.8571429,98.5714286 Z M51.4285714,98.5714286 L55.7142857,98.5714286 L55.7142857,102.857143 L51.4285714,102.857143 L51.4285714,98.5714286 Z M55.7142857,98.5714286 L60,98.5714286 L60,102.857143 L55.7142857,102.857143 L55.7142857,98.5714286 Z M64.2857143,98.5714286 L68.5714286,98.5714286 L68.5714286,102.857143 L64.2857143,102.857143 L64.2857143,98.5714286 Z M81.4285714,98.5714286 L85.7142857,98.5714286 L85.7142857,102.857143 L81.4285714,102.857143 L81.4285714,98.5714286 Z M90,98.5714286 L94.2857143,98.5714286 L94.2857143,102.857143 L90,102.857143 L90,98.5714286 Z M98.5714286,98.5714286 L102.857143,98.5714286 L102.857143,102.857143 L98.5714286,102.857143 L98.5714286,98.5714286 Z M124.285714,98.5714286 L128.571429,98.5714286 L128.571429,102.857143 L124.285714,102.857143 L124.285714,98.5714286 Z M128.571429,98.5714286 L132.857143,98.5714286 L132.857143,102.857143 L128.571429,102.857143 L128.571429,98.5714286 Z M0,102.857143 L4.28571429,102.857143 L4.28571429,107.142857 L0,107.142857 L0,102.857143 Z M21.4285714,102.857143 L25.7142857,102.857143 L25.7142857,107.142857 L21.4285714,107.142857 L21.4285714,102.857143 Z M25.7142857,102.857143 L30,102.857143 L30,107.142857 L25.7142857,107.142857 L25.7142857,102.857143 Z M30,102.857143 L34.2857143,102.857143 L34.2857143,107.142857 L30,107.142857 L30,102.857143 Z M38.5714286,102.857143 L42.8571429,102.857143 L42.8571429,107.142857 L38.5714286,107.142857 L38.5714286,102.857143 Z M51.4285714,102.857143 L55.7142857,102.857143 L55.7142857,107.142857 L51.4285714,107.142857 L51.4285714,102.857143 Z M60,102.857143 L64.2857143,102.857143 L64.2857143,107.142857 L60,107.142857 L60,102.857143 Z M64.2857143,102.857143 L68.5714286,102.857143 L68.5714286,107.142857 L64.2857143,107.142857 L64.2857143,102.857143 Z M68.5714286,102.857143 L72.8571429,102.857143 L72.8571429,107.142857 L68.5714286,107.142857 L68.5714286,102.857143 Z M72.8571429,102.857143 L77.1428571,102.857143 L77.1428571,107.142857 L72.8571429,107.142857 L72.8571429,102.857143 Z M94.2857143,102.857143 L98.5714286,102.857143 L98.5714286,107.142857 L94.2857143,107.142857 L94.2857143,102.857143 Z M102.857143,102.857143 L107.142857,102.857143 L107.142857,107.142857 L102.857143,107.142857 L102.857143,102.857143 Z M107.142857,102.857143 L111.428571,102.857143 L111.428571,107.142857 L107.142857,107.142857 L107.142857,102.857143 Z M111.428571,102.857143 L115.714286,102.857143 L115.714286,107.142857 L111.428571,107.142857 L111.428571,102.857143 Z M115.714286,102.857143 L120,102.857143 L120,107.142857 L115.714286,107.142857 L115.714286,102.857143 Z M120,102.857143 L124.285714,102.857143 L124.285714,107.142857 L120,107.142857 L120,102.857143 Z M124.285714,102.857143 L128.571429,102.857143 L128.571429,107.142857 L124.285714,107.142857 L124.285714,102.857143 Z M137.142857,102.857143 L141.428571,102.857143 L141.428571,107.142857 L137.142857,107.142857 L137.142857,102.857143 Z M34.2857143,107.142857 L38.5714286,107.142857 L38.5714286,111.428571 L34.2857143,111.428571 L34.2857143,107.142857 Z M64.2857143,107.142857 L68.5714286,107.142857 L68.5714286,111.428571 L64.2857143,111.428571 L64.2857143,107.142857 Z M72.8571429,107.142857 L77.1428571,107.142857 L77.1428571,111.428571 L72.8571429,111.428571 L72.8571429,107.142857 Z M77.1428571,107.142857 L81.4285714,107.142857 L81.4285714,111.428571 L77.1428571,111.428571 L77.1428571,107.142857 Z M81.4285714,107.142857 L85.7142857,107.142857 L85.7142857,111.428571 L81.4285714,111.428571 L81.4285714,107.142857 Z M85.7142857,107.142857 L90,107.142857 L90,111.428571 L85.7142857,111.428571 L85.7142857,107.142857 Z M90,107.142857 L94.2857143,107.142857 L94.2857143,111.428571 L90,111.428571 L90,107.142857 Z M102.857143,107.142857 L107.142857,107.142857 L107.142857,111.428571 L102.857143,111.428571 L102.857143,107.142857 Z M120,107.142857 L124.285714,107.142857 L124.285714,111.428571 L120,111.428571 L120,107.142857 Z M128.571429,107.142857 L132.857143,107.142857 L132.857143,111.428571 L128.571429,111.428571 L128.571429,107.142857 Z M137.142857,107.142857 L141.428571,107.142857 L141.428571,111.428571 L137.142857,111.428571 L137.142857,107.142857 Z M0,111.428571 L4.28571429,111.428571 L4.28571429,115.714286 L0,115.714286 L0,111.428571 Z M4.28571429,111.428571 L8.57142857,111.428571 L8.57142857,115.714286 L4.28571429,115.714286 L4.28571429,111.428571 Z M8.57142857,111.428571 L12.8571429,111.428571 L12.8571429,115.714286 L8.57142857,115.714286 L8.57142857,111.428571 Z M12.8571429,111.428571 L17.1428571,111.428571 L17.1428571,115.714286 L12.8571429,115.714286 L12.8571429,111.428571 Z M17.1428571,111.428571 L21.4285714,111.428571 L21.4285714,115.714286 L17.1428571,115.714286 L17.1428571,111.428571 Z M21.4285714,111.428571 L25.7142857,111.428571 L25.7142857,115.714286 L21.4285714,115.714286 L21.4285714,111.428571 Z M25.7142857,111.428571 L30,111.428571 L30,115.714286 L25.7142857,115.714286 L25.7142857,111.428571 Z M34.2857143,111.428571 L38.5714286,111.428571 L38.5714286,115.714286 L34.2857143,115.714286 L34.2857143,111.428571 Z M38.5714286,111.428571 L42.8571429,111.428571 L42.8571429,115.714286 L38.5714286,115.714286 L38.5714286,111.428571 Z M47.1428571,111.428571 L51.4285714,111.428571 L51.4285714,115.714286 L47.1428571,115.714286 L47.1428571,111.428571 Z M51.4285714,111.428571 L55.7142857,111.428571 L55.7142857,115.714286 L51.4285714,115.714286 L51.4285714,111.428571 Z M64.2857143,111.428571 L68.5714286,111.428571 L68.5714286,115.714286 L64.2857143,115.714286 L64.2857143,111.428571 Z M68.5714286,111.428571 L72.8571429,111.428571 L72.8571429,115.714286 L68.5714286,115.714286 L68.5714286,111.428571 Z M72.8571429,111.428571 L77.1428571,111.428571 L77.1428571,115.714286 L72.8571429,115.714286 L72.8571429,111.428571 Z M90,111.428571 L94.2857143,111.428571 L94.2857143,115.714286 L90,115.714286 L90,111.428571 Z M94.2857143,111.428571 L98.5714286,111.428571 L98.5714286,115.714286 L94.2857143,115.714286 L94.2857143,111.428571 Z M98.5714286,111.428571 L102.857143,111.428571 L102.857143,115.714286 L98.5714286,115.714286 L98.5714286,111.428571 Z M102.857143,111.428571 L107.142857,111.428571 L107.142857,115.714286 L102.857143,115.714286 L102.857143,111.428571 Z M111.428571,111.428571 L115.714286,111.428571 L115.714286,115.714286 L111.428571,115.714286 L111.428571,111.428571 Z M120,111.428571 L124.285714,111.428571 L124.285714,115.714286 L120,115.714286 L120,111.428571 Z M124.285714,111.428571 L128.571429,111.428571 L128.571429,115.714286 L124.285714,115.714286 L124.285714,111.428571 Z M132.857143,111.428571 L137.142857,111.428571 L137.142857,115.714286 L132.857143,115.714286 L132.857143,111.428571 Z M0,115.714286 L4.28571429,115.714286 L4.28571429,120 L0,120 L0,115.714286 Z M25.7142857,115.714286 L30,115.714286 L30,120 L25.7142857,120 L25.7142857,115.714286 Z M38.5714286,115.714286 L42.8571429,115.714286 L42.8571429,120 L38.5714286,120 L38.5714286,115.714286 Z M47.1428571,115.714286 L51.4285714,115.714286 L51.4285714,120 L47.1428571,120 L47.1428571,115.714286 Z M60,115.714286 L64.2857143,115.714286 L64.2857143,120 L60,120 L60,115.714286 Z M64.2857143,115.714286 L68.5714286,115.714286 L68.5714286,120 L64.2857143,120 L64.2857143,115.714286 Z M68.5714286,115.714286 L72.8571429,115.714286 L72.8571429,120 L68.5714286,120 L68.5714286,115.714286 Z M77.1428571,115.714286 L81.4285714,115.714286 L81.4285714,120 L77.1428571,120 L77.1428571,115.714286 Z M81.4285714,115.714286 L85.7142857,115.714286 L85.7142857,120 L81.4285714,120 L81.4285714,115.714286 Z M85.7142857,115.714286 L90,115.714286 L90,120 L85.7142857,120 L85.7142857,115.714286 Z M90,115.714286 L94.2857143,115.714286 L94.2857143,120 L90,120 L90,115.714286 Z M94.2857143,115.714286 L98.5714286,115.714286 L98.5714286,120 L94.2857143,120 L94.2857143,115.714286 Z M98.5714286,115.714286 L102.857143,115.714286 L102.857143,120 L98.5714286,120 L98.5714286,115.714286 Z M102.857143,115.714286 L107.142857,115.714286 L107.142857,120 L102.857143,120 L102.857143,115.714286 Z M120,115.714286 L124.285714,115.714286 L124.285714,120 L120,120 L120,115.714286 Z M124.285714,115.714286 L128.571429,115.714286 L128.571429,120 L124.285714,120 L124.285714,115.714286 Z M128.571429,115.714286 L132.857143,115.714286 L132.857143,120 L128.571429,120 L128.571429,115.714286 Z M132.857143,115.714286 L137.142857,115.714286 L137.142857,120 L132.857143,120 L132.857143,115.714286 Z M0,120 L4.28571429,120 L4.28571429,124.285714 L0,124.285714 L0,120 Z M8.57142857,120 L12.8571429,120 L12.8571429,124.285714 L8.57142857,124.285714 L8.57142857,120 Z M12.8571429,120 L17.1428571,120 L17.1428571,124.285714 L12.8571429,124.285714 L12.8571429,120 Z M17.1428571,120 L21.4285714,120 L21.4285714,124.285714 L17.1428571,124.285714 L17.1428571,120 Z M25.7142857,120 L30,120 L30,124.285714 L25.7142857,124.285714 L25.7142857,120 Z M34.2857143,120 L38.5714286,120 L38.5714286,124.285714 L34.2857143,124.285714 L34.2857143,120 Z M38.5714286,120 L42.8571429,120 L42.8571429,124.285714 L38.5714286,124.285714 L38.5714286,120 Z M47.1428571,120 L51.4285714,120 L51.4285714,124.285714 L47.1428571,124.285714 L47.1428571,120 Z M68.5714286,120 L72.8571429,120 L72.8571429,124.285714 L68.5714286,124.285714 L68.5714286,120 Z M81.4285714,120 L85.7142857,120 L85.7142857,124.285714 L81.4285714,124.285714 L81.4285714,120 Z M94.2857143,120 L98.5714286,120 L98.5714286,124.285714 L94.2857143,124.285714 L94.2857143,120 Z M102.857143,120 L107.142857,120 L107.142857,124.285714 L102.857143,124.285714 L102.857143,120 Z M107.142857,120 L111.428571,120 L111.428571,124.285714 L107.142857,124.285714 L107.142857,120 Z M111.428571,120 L115.714286,120 L115.714286,124.285714 L111.428571,124.285714 L111.428571,120 Z M115.714286,120 L120,120 L120,124.285714 L115.714286,124.285714 L115.714286,120 Z M120,120 L124.285714,120 L124.285714,124.285714 L120,124.285714 L120,120 Z M132.857143,120 L137.142857,120 L137.142857,124.285714 L132.857143,124.285714 L132.857143,120 Z M0,124.285714 L4.28571429,124.285714 L4.28571429,128.571429 L0,128.571429 L0,124.285714 Z M8.57142857,124.285714 L12.8571429,124.285714 L12.8571429,128.571429 L8.57142857,128.571429 L8.57142857,124.285714 Z M12.8571429,124.285714 L17.1428571,124.285714 L17.1428571,128.571429 L12.8571429,128.571429 L12.8571429,124.285714 Z M17.1428571,124.285714 L21.4285714,124.285714 L21.4285714,128.571429 L17.1428571,128.571429 L17.1428571,124.285714 Z M25.7142857,124.285714 L30,124.285714 L30,128.571429 L25.7142857,128.571429 L25.7142857,124.285714 Z M34.2857143,124.285714 L38.5714286,124.285714 L38.5714286,128.571429 L34.2857143,128.571429 L34.2857143,124.285714 Z M38.5714286,124.285714 L42.8571429,124.285714 L42.8571429,128.571429 L38.5714286,128.571429 L38.5714286,124.285714 Z M51.4285714,124.285714 L55.7142857,124.285714 L55.7142857,128.571429 L51.4285714,128.571429 L51.4285714,124.285714 Z M55.7142857,124.285714 L60,124.285714 L60,128.571429 L55.7142857,128.571429 L55.7142857,124.285714 Z M60,124.285714 L64.2857143,124.285714 L64.2857143,128.571429 L60,128.571429 L60,124.285714 Z M72.8571429,124.285714 L77.1428571,124.285714 L77.1428571,128.571429 L72.8571429,128.571429 L72.8571429,124.285714 Z M77.1428571,124.285714 L81.4285714,124.285714 L81.4285714,128.571429 L77.1428571,128.571429 L77.1428571,124.285714 Z M81.4285714,124.285714 L85.7142857,124.285714 L85.7142857,128.571429 L81.4285714,128.571429 L81.4285714,124.285714 Z M90,124.285714 L94.2857143,124.285714 L94.2857143,128.571429 L90,128.571429 L90,124.285714 Z M94.2857143,124.285714 L98.5714286,124.285714 L98.5714286,128.571429 L94.2857143,128.571429 L94.2857143,124.285714 Z M107.142857,124.285714 L111.428571,124.285714 L111.428571,128.571429 L107.142857,128.571429 L107.142857,124.285714 Z M120,124.285714 L124.285714,124.285714 L124.285714,128.571429 L120,128.571429 L120,124.285714 Z M124.285714,124.285714 L128.571429,124.285714 L128.571429,128.571429 L124.285714,128.571429 L124.285714,124.285714 Z M128.571429,124.285714 L132.857143,124.285714 L132.857143,128.571429 L128.571429,128.571429 L128.571429,124.285714 Z M132.857143,124.285714 L137.142857,124.285714 L137.142857,128.571429 L132.857143,128.571429 L132.857143,124.285714 Z M137.142857,124.285714 L141.428571,124.285714 L141.428571,128.571429 L137.142857,128.571429 L137.142857,124.285714 Z M0,128.571429 L4.28571429,128.571429 L4.28571429,132.857143 L0,132.857143 L0,128.571429 Z M8.57142857,128.571429 L12.8571429,128.571429 L12.8571429,132.857143 L8.57142857,132.857143 L8.57142857,128.571429 Z M12.8571429,128.571429 L17.1428571,128.571429 L17.1428571,132.857143 L12.8571429,132.857143 L12.8571429,128.571429 Z M17.1428571,128.571429 L21.4285714,128.571429 L21.4285714,132.857143 L17.1428571,132.857143 L17.1428571,128.571429 Z M25.7142857,128.571429 L30,128.571429 L30,132.857143 L25.7142857,132.857143 L25.7142857,128.571429 Z M34.2857143,128.571429 L38.5714286,128.571429 L38.5714286,132.857143 L34.2857143,132.857143 L34.2857143,128.571429 Z M38.5714286,128.571429 L42.8571429,128.571429 L42.8571429,132.857143 L38.5714286,132.857143 L38.5714286,128.571429 Z M42.8571429,128.571429 L47.1428571,128.571429 L47.1428571,132.857143 L42.8571429,132.857143 L42.8571429,128.571429 Z M55.7142857,128.571429 L60,128.571429 L60,132.857143 L55.7142857,132.857143 L55.7142857,128.571429 Z M60,128.571429 L64.2857143,128.571429 L64.2857143,132.857143 L60,132.857143 L60,128.571429 Z M64.2857143,128.571429 L68.5714286,128.571429 L68.5714286,132.857143 L64.2857143,132.857143 L64.2857143,128.571429 Z M77.1428571,128.571429 L81.4285714,128.571429 L81.4285714,132.857143 L77.1428571,132.857143 L77.1428571,128.571429 Z M85.7142857,128.571429 L90,128.571429 L90,132.857143 L85.7142857,132.857143 L85.7142857,128.571429 Z M98.5714286,128.571429 L102.857143,128.571429 L102.857143,132.857143 L98.5714286,132.857143 L98.5714286,128.571429 Z M111.428571,128.571429 L115.714286,128.571429 L115.714286,132.857143 L111.428571,132.857143 L111.428571,128.571429 Z M124.285714,128.571429 L128.571429,128.571429 L128.571429,132.857143 L124.285714,132.857143 L124.285714,128.571429 Z M128.571429,128.571429 L132.857143,128.571429 L132.857143,132.857143 L128.571429,132.857143 L128.571429,128.571429 Z M0,132.857143 L4.28571429,132.857143 L4.28571429,137.142857 L0,137.142857 L0,132.857143 Z M25.7142857,132.857143 L30,132.857143 L30,137.142857 L25.7142857,137.142857 L25.7142857,132.857143 Z M34.2857143,132.857143 L38.5714286,132.857143 L38.5714286,137.142857 L34.2857143,137.142857 L34.2857143,132.857143 Z M38.5714286,132.857143 L42.8571429,132.857143 L42.8571429,137.142857 L38.5714286,137.142857 L38.5714286,132.857143 Z M51.4285714,132.857143 L55.7142857,132.857143 L55.7142857,137.142857 L51.4285714,137.142857 L51.4285714,132.857143 Z M55.7142857,132.857143 L60,132.857143 L60,137.142857 L55.7142857,137.142857 L55.7142857,132.857143 Z M64.2857143,132.857143 L68.5714286,132.857143 L68.5714286,137.142857 L64.2857143,137.142857 L64.2857143,132.857143 Z M68.5714286,132.857143 L72.8571429,132.857143 L72.8571429,137.142857 L68.5714286,137.142857 L68.5714286,132.857143 Z M81.4285714,132.857143 L85.7142857,132.857143 L85.7142857,137.142857 L81.4285714,137.142857 L81.4285714,132.857143 Z M90,132.857143 L94.2857143,132.857143 L94.2857143,137.142857 L90,137.142857 L90,132.857143 Z M111.428571,132.857143 L115.714286,132.857143 L115.714286,137.142857 L111.428571,137.142857 L111.428571,132.857143 Z M115.714286,132.857143 L120,132.857143 L120,137.142857 L115.714286,137.142857 L115.714286,132.857143 Z M120,132.857143 L124.285714,132.857143 L124.285714,137.142857 L120,137.142857 L120,132.857143 Z M124.285714,132.857143 L128.571429,132.857143 L128.571429,137.142857 L124.285714,137.142857 L124.285714,132.857143 Z M128.571429,132.857143 L132.857143,132.857143 L132.857143,137.142857 L128.571429,137.142857 L128.571429,132.857143 Z M0,137.142857 L4.28571429,137.142857 L4.28571429,141.428571 L0,141.428571 L0,137.142857 Z M4.28571429,137.142857 L8.57142857,137.142857 L8.57142857,141.428571 L4.28571429,141.428571 L4.28571429,137.142857 Z M8.57142857,137.142857 L12.8571429,137.142857 L12.8571429,141.428571 L8.57142857,141.428571 L8.57142857,137.142857 Z M12.8571429,137.142857 L17.1428571,137.142857 L17.1428571,141.428571 L12.8571429,141.428571 L12.8571429,137.142857 Z M17.1428571,137.142857 L21.4285714,137.142857 L21.4285714,141.428571 L17.1428571,141.428571 L17.1428571,137.142857 Z M21.4285714,137.142857 L25.7142857,137.142857 L25.7142857,141.428571 L21.4285714,141.428571 L21.4285714,137.142857 Z M25.7142857,137.142857 L30,137.142857 L30,141.428571 L25.7142857,141.428571 L25.7142857,137.142857 Z M34.2857143,137.142857 L38.5714286,137.142857 L38.5714286,141.428571 L34.2857143,141.428571 L34.2857143,137.142857 Z M51.4285714,137.142857 L55.7142857,137.142857 L55.7142857,141.428571 L51.4285714,141.428571 L51.4285714,137.142857 Z M60,137.142857 L64.2857143,137.142857 L64.2857143,141.428571 L60,141.428571 L60,137.142857 Z M64.2857143,137.142857 L68.5714286,137.142857 L68.5714286,141.428571 L64.2857143,141.428571 L64.2857143,137.142857 Z M72.8571429,137.142857 L77.1428571,137.142857 L77.1428571,141.428571 L72.8571429,141.428571 L72.8571429,137.142857 Z M85.7142857,137.142857 L90,137.142857 L90,141.428571 L85.7142857,141.428571 L85.7142857,137.142857 Z M94.2857143,137.142857 L98.5714286,137.142857 L98.5714286,141.428571 L94.2857143,141.428571 L94.2857143,137.142857 Z M98.5714286,137.142857 L102.857143,137.142857 L102.857143,141.428571 L98.5714286,141.428571 L98.5714286,137.142857 Z M102.857143,137.142857 L107.142857,137.142857 L107.142857,141.428571 L102.857143,141.428571 L102.857143,137.142857 Z M107.142857,137.142857 L111.428571,137.142857 L111.428571,141.428571 L107.142857,141.428571 L107.142857,137.142857 Z M115.714286,137.142857 L120,137.142857 L120,141.428571 L115.714286,141.428571 L115.714286,137.142857 Z M124.285714,137.142857 L128.571429,137.142857 L128.571429,141.428571 L124.285714,141.428571 L124.285714,137.142857 Z M132.857143,137.142857 L137.142857,137.142857 L137.142857,141.428571 L132.857143,141.428571 L132.857143,137.142857 Z" id="Shape"></path>
                    </g>
                </g>
            </g>
        </g>
    </g>
</svg>