<?xml version="1.0" encoding="UTF-8"?>
<svg width="158px" height="20px" viewBox="0 0 158 20" version="1.1" xmlns="http://www.w3.org/2000/svg" xmlns:xlink="http://www.w3.org/1999/xlink">
    <!-- Generator: Sketch 64 (93537) - https://sketch.com -->
    <title>Logo</title>
    <desc>Created with Sketch.</desc>
    <g id="Page-1" stroke="none" stroke-width="1" fill="none" fill-rule="evenodd">
        <g id="Homepage" transform="translate(-216.000000, -31.000000)" fill="#32B1AE">
            <g id="Logo-turq" transform="translate(216.000000, 31.000000)">
                <g id="sl-logo-dark">
                    <path d="M33.9374696,7.80265551 C35.4846845,7.80265551 36.5540821,8.30074649 37.168413,8.64035569 C37.6917381,8.91204414 37.7599965,9.38749487 37.5097103,9.9082261 L37.5097103,9.9082261 L37.2821824,10.3157615 C37.0091434,10.859133 36.5768349,10.9270537 36.0080042,10.6780109 C35.5074373,10.451603 34.7565843,10.1119938 33.8009506,10.1119938 C32.7998125,10.1119938 32.2309839,10.5195238 32.2309839,11.2440227 C32.2309839,13.1458364 37.9875299,12.3986918 37.9875299,16.3381554 C37.9875299,18.3758106 36.2582904,19.8927292 33.5734194,19.8927292 C31.7076621,19.8927292 30.4107333,19.1908705 29.7053859,18.7154198 C29.1820637,18.4210911 29.1365574,17.9230001 29.4778545,17.4249038 L29.4778545,17.4249038 L29.7508921,17.0173738 C30.0921893,16.5419231 30.4789928,16.4966426 31.0478207,16.7909713 C31.5938965,17.0852945 32.4585157,17.5833909 33.6416783,17.5833909 C34.6428165,17.5833909 35.2571511,17.1305805 35.2571511,16.4060815 C35.2571511,14.5269081 29.5006076,15.2287667 29.5006076,11.2666629 C29.5006076,9.00260515 31.5028837,7.80265551 33.9374696,7.80265551 Z M44.6541962,7.80265551 C47.9534002,7.80265551 49.7964036,10.134634 49.7964036,13.3043182 C49.7964036,13.8024092 49.3640951,14.2778653 48.7952699,14.2778653 L48.7952699,14.2778653 L41.7190424,14.2778653 C41.9010647,16.3607956 43.4482818,17.4475494 45.2002741,17.4475494 C46.2696717,17.4475494 47.1570415,17.040014 47.7031195,16.7004048 C48.2719447,16.4287218 48.6815005,16.4966426 48.9772922,17.0173738 L48.9772922,17.0173738 L49.2503312,17.4701897 C49.5233701,17.9909209 49.4323535,18.4437314 48.9317866,18.7380601 C48.1809336,19.2135108 46.8157442,19.8927292 44.9954935,19.8927292 C41.1502116,19.8927292 38.7611357,17.1305805 38.7611357,13.8476897 C38.7611357,10.2931212 41.1729644,7.80265551 44.6541962,7.80265551 Z M81.7523188,7.80265551 C83.618075,7.80265551 84.8694787,8.48186851 85.5521168,8.95732465 C86.0298983,9.2742936 86.0526783,9.74974433 85.7341392,10.2478353 L85.7341392,10.2478353 L85.4383257,10.7006512 C85.0970066,11.2213824 84.7102363,11.2213824 84.1641693,10.949694 C83.6863334,10.632725 82.9127276,10.2478353 81.9115938,10.2478353 C79.7727986,10.2478353 78.3848564,11.8553203 78.3848564,13.8250494 C78.3848564,15.7721436 79.7727986,17.4475494 82.0026049,17.4475494 C83.1402609,17.4475494 84.0503781,16.949453 84.5964452,16.5645633 C85.1652922,16.2475944 85.5976224,16.3155151 85.8933816,16.858892 L85.8933816,16.858892 L86.1209095,17.2890622 C86.393943,17.7871532 86.3257118,18.2399691 85.870656,18.5569381 C85.1652922,19.0776693 83.754619,19.8927292 81.7523188,19.8927292 C77.9070423,19.8927292 75.4497026,17.1985012 75.4497026,13.8476897 C75.4497026,10.5648043 77.9070423,7.80265551 81.7523188,7.80265551 Z M92.7421083,7.80265551 C96.0412906,7.80265551 97.884294,10.134634 97.884294,13.3043182 C97.884294,13.8024092 97.4519637,14.2778653 96.8831711,14.2778653 L96.8831711,14.2778653 L89.8069164,14.2778653 C89.9889388,16.3607956 91.5361831,17.4475494 93.2881754,17.4475494 C94.3575838,17.4475494 95.2449156,17.040014 95.7909826,16.7004048 C96.3598297,16.4287218 96.7693799,16.4966426 97.0651934,17.0173738 L97.0651934,17.0173738 L97.338227,17.4701897 C97.6112605,17.9909209 97.5202493,18.4437314 97.0196879,18.7380601 C96.2688185,19.2135108 94.9036509,19.8927292 93.083373,19.8927292 C89.2381238,19.8927292 86.8489989,17.1305805 86.8489989,13.8476897 C86.8489989,10.2931212 89.2608494,7.80265551 92.7421083,7.80265551 Z M57.3276925,7.98377753 C57.9647815,7.98377753 58.1923149,8.30074649 58.1923149,8.9346844 L58.1923149,8.9346844 L58.1923149,9.81766509 C58.1923149,10.4289627 57.8282648,10.7685719 57.2139285,10.7685719 C55.0978861,10.7685719 54.0739941,12.8515077 54.0739941,14.9570837 L54.0739941,14.9570837 L54.0739941,18.6701393 C54.0739941,19.3040772 53.7554495,19.6210462 53.1411187,19.6210462 L53.1411187,19.6210462 L52.1399794,19.6210462 C51.5256431,19.6210462 51.2070986,19.3040772 51.2070986,18.6701393 L51.2070986,18.6701393 L51.2070986,9.02524541 C51.2070986,8.41394775 51.5256431,8.07433855 52.1399794,8.07433855 L52.1399794,8.07433855 L53.0273492,8.07433855 C53.6416855,8.07433855 53.9829829,8.41394775 53.9829829,9.02524541 L53.9829829,9.02524541 L53.9829829,10.1119938 C53.9829829,10.542164 53.9147245,10.9044135 53.9147245,10.9044135 L53.9147245,10.9044135 L53.9602301,10.9044135 C54.4152914,9.52333639 55.6894696,7.98377753 57.3276925,7.98377753 Z M60.7739279,8.07433855 C61.3200058,8.07433855 61.6840559,8.32338674 61.8433255,8.86676364 L61.8433255,8.86676364 L64.0048735,15.2287667 C64.2324068,15.9079852 64.437182,16.9720933 64.437182,16.9720933 L64.437182,16.9720933 L64.4826876,16.9720933 C64.4826876,16.9720933 64.6647154,15.9079852 64.8922433,15.2287667 L64.8922433,15.2287667 L67.0537913,8.86676364 C67.2130663,8.32338674 67.5771164,8.07433855 68.1231889,8.07433855 L68.1231889,8.07433855 L69.1925865,8.07433855 C69.897934,8.07433855 70.1937257,8.50451418 69.9661978,9.16108693 L69.9661978,9.16108693 L66.4622132,18.8512613 C66.2801854,19.3946382 65.9388881,19.6210462 65.3928156,19.6210462 L65.3928156,19.6210462 L63.572565,19.6210462 C63.026487,19.6210462 62.6624369,19.3946382 62.5031674,18.8512613 L62.5031674,18.8512613 L58.9536772,9.16108693 C58.7261438,8.50451418 58.9991828,8.07433855 59.7045303,8.07433855 L59.7045303,8.07433855 Z M73.0606212,8.07433855 C73.6749575,8.07433855 73.993502,8.41394775 73.993502,9.02524541 L73.993502,9.02524541 L73.993502,18.6701393 C73.993502,19.3040772 73.6749575,19.6210462 73.0606212,19.6210462 L73.0606212,19.6210462 L72.059482,19.6210462 C71.4451511,19.6210462 71.1266066,19.3040772 71.1266066,18.6701393 L71.1266066,18.6701393 L71.1266066,9.02524541 C71.1266066,8.41394775 71.4451511,8.07433855 72.059482,8.07433855 L72.059482,8.07433855 Z M44.5859378,9.97615227 C45.9056216,9.97615227 46.8840026,10.9270537 46.9295082,12.5345387 L41.7873007,12.5345387 C42.0603397,10.9949745 43.1069845,9.97615227 44.5859378,9.97615227 Z M73.0407352,4.21175183 C73.6550715,4.21175183 73.973616,4.55136104 73.973616,5.16265869 L73.973616,5.16265869 L73.9940257,5.70159912 C73.9940257,6.33553703 73.6754811,6.65250598 73.0611448,6.65250598 L73.0611448,6.65250598 L72.0600056,6.65250598 C71.4456747,6.65250598 71.1271302,6.33553703 71.1271302,5.70159912 L71.1271302,5.70159912 L71.1067205,5.16265869 C71.1067205,4.55136104 71.4252651,4.21175183 72.039596,4.21175183 L72.039596,4.21175183 Z M110.603296,7.80265551 C114.13006,7.80265551 116.996912,10.3157615 116.996912,13.8476897 C116.996912,17.4022635 114.13006,19.8927292 110.603296,19.8927292 C107.076586,19.8927292 104.232405,17.4022635 104.232405,13.8476897 C104.232405,10.3157615 107.076586,7.80265551 110.603296,7.80265551 Z M101.206256,3.546223 C101.820609,3.546223 102.139148,3.8858322 102.139148,4.49712445 L102.139148,4.49712445 L102.139148,15.7947839 C102.139148,16.9268128 102.616929,17.1305805 103.04926,17.175861 C103.45881,17.2211415 103.754623,17.4701897 103.754623,17.9909209 L103.754623,17.9909209 L103.754623,18.7607003 C103.754623,19.3493577 103.48159,19.7342474 102.798952,19.7342474 C101.251762,19.7342474 99.2722416,19.3267175 99.2722416,16.0211918 L99.2722416,16.0211918 L99.2722416,4.49712445 C99.2722416,3.8858322 99.5907807,3.546223 100.205133,3.546223 L100.205133,3.546223 Z M92.6738228,9.97615227 C93.9934848,9.97615227 94.9718821,10.9270537 95.0173877,12.5345387 L89.875202,12.5345387 C90.1482355,10.9949745 91.194864,9.97615227 92.6738228,9.97615227 Z M134.767143,7.80265551 C138.066325,7.80265551 139.909329,10.134634 139.909329,13.3043182 C139.909329,13.8024092 139.477053,14.2778653 138.908206,14.2778653 L138.908206,14.2778653 L131.831951,14.2778653 C132.013974,16.3607956 133.561218,17.4475494 135.31321,17.4475494 C136.382619,17.4475494 137.26995,17.040014 137.816072,16.7004048 C138.384864,16.4287218 138.794415,16.4966426 139.090228,17.0173738 L139.090228,17.0173738 L139.363262,17.4701897 C139.636295,17.9909209 139.545284,18.4437314 139.044723,18.7380601 C138.293853,19.2135108 136.928686,19.8927292 135.108408,19.8927292 C131.263159,19.8927292 128.874088,17.1305805 128.874088,13.8476897 C128.874088,10.2931212 131.285884,7.80265551 134.767143,7.80265551 Z M119.22674,8.07433855 C119.772808,8.07433855 120.136852,8.32338674 120.296149,8.86676364 L120.296149,8.86676364 L122.457692,15.2287667 C122.685219,15.9079852 122.889967,16.9720933 122.889967,16.9720933 L122.889967,16.9720933 L122.935473,16.9720933 C122.935473,16.9720933 123.11755,15.9079852 123.345078,15.2287667 L123.345078,15.2287667 L125.50662,8.86676364 C125.665863,8.32338674 126.029907,8.07433855 126.575974,8.07433855 L126.575974,8.07433855 L127.645383,8.07433855 C128.350747,8.07433855 128.64656,8.50451418 128.418978,9.16108693 L128.418978,9.16108693 L124.915048,18.8512613 C124.732971,19.3946382 124.391706,19.6210462 123.845639,19.6210462 L123.845639,19.6210462 L122.025361,19.6210462 C121.479294,19.6210462 121.11525,19.3946382 120.955953,18.8512613 L120.955953,18.8512613 L117.406463,9.16108693 C117.178935,8.50451418 117.451968,8.07433855 118.157332,8.07433855 L118.157332,8.07433855 Z M110.603296,10.2478353 C112.491805,10.2478353 114.061775,11.7194788 114.061775,13.8476897 C114.061775,15.9985462 112.491805,17.4475494 110.603296,17.4475494 C108.714787,17.4475494 107.167597,15.9985462 107.167597,13.8476897 C107.167597,11.7194788 108.714787,10.2478353 110.603296,10.2478353 Z M153.128892,7.80265551 C154.676136,7.80265551 155.745545,8.30074649 156.359843,8.64035569 C156.883185,8.91204414 156.951416,9.38749487 156.701162,9.9082261 L156.701162,9.9082261 L156.473634,10.3157615 C156.200601,10.859133 155.76827,10.9270537 155.199423,10.6780109 C154.698862,10.451603 153.948047,10.1119938 152.992375,10.1119938 C151.991252,10.1119938 151.422405,10.5195238 151.422405,11.2440227 C151.422405,13.1458364 157.178944,12.3986918 157.178944,16.3381554 C157.178944,18.3758106 155.449731,19.8927292 152.764847,19.8927292 C150.899118,19.8927292 149.602182,19.1908705 148.896818,18.7154198 C148.373531,18.4210911 148.328025,17.9230001 148.66929,17.4249038 L148.66929,17.4249038 L148.942324,17.0173738 C149.283643,16.5419231 149.670413,16.4966426 150.23926,16.7909713 C150.785327,17.0852945 151.649933,17.5833909 152.833133,17.5833909 C153.834256,17.5833909 154.448608,17.1305805 154.448608,16.4060815 C154.448608,14.5269081 148.69207,15.2287667 148.69207,11.2666629 C148.69207,9.00260515 150.694316,7.80265551 153.128892,7.80265551 Z M147.440639,7.98377753 C148.077718,7.98377753 148.305245,8.30074649 148.305245,8.9346844 L148.305245,8.9346844 L148.305245,9.81766509 C148.305245,10.4289627 147.941201,10.7685719 147.326848,10.7685719 C145.210811,10.7685719 144.186908,12.8515077 144.186908,14.9570837 L144.186908,14.9570837 L144.186908,18.6701393 C144.186908,19.3040772 143.868369,19.6210462 143.254071,19.6210462 L143.254071,19.6210462 L142.252894,19.6210462 C141.638595,19.6210462 141.320056,19.3040772 141.320056,18.6701393 L141.320056,18.6701393 L141.320056,9.02524541 C141.320056,8.41394775 141.638595,8.07433855 142.252894,8.07433855 L142.252894,8.07433855 L143.14028,8.07433855 C143.754632,8.07433855 144.095897,8.41394775 144.095897,9.02524541 L144.095897,9.02524541 L144.095897,10.1119938 C144.095897,10.542164 144.027666,10.9044135 144.027666,10.9044135 L144.027666,10.9044135 L144.073172,10.9044135 C144.528227,9.52333639 145.802384,7.98377753 147.440639,7.98377753 Z M134.698858,9.97615227 C136.018574,9.97615227 136.996917,10.9270537 137.042422,12.5345387 L131.900237,12.5345387 C132.17327,10.9949745 133.219899,9.97615227 134.698858,9.97615227 Z" id="Fill-1"></path>
                    <path d="M20.0994225,9.99999204 L20.0994225,20 L10.0497225,20 C4.49941222,20 0,15.5228492 0,9.99999204 C0,4.47713487 4.49941222,0 10.0497225,0 C15.6000327,0 20.0994225,4.47713487 20.0994225,9.99999204 L20.0994225,9.99999204 Z M10.0496905,7.5722667 C10.9854551,6.04131117 12.8570163,6.04131117 13.7927809,6.80678894 C14.7286095,7.5722667 14.7286095,9.10319042 13.7927809,10.634146 C13.1377585,11.7823308 11.4533694,12.9305474 10.0496905,13.6959934 C8.64604356,12.9305474 6.96165446,11.7823308 6.30660004,10.634146 C5.37083543,9.10319042 5.37083543,7.5722667 6.30660004,6.80678894 C7.24239663,6.04131117 9.11392586,6.04131117 10.0496905,7.5722667 L10.0496905,7.5722667 Z" id="Fill-14"></path>
                </g>
            </g>
        </g>
    </g>
</svg>