<svg xmlns="http://www.w3.org/2000/svg" width="188" height="24" viewBox="0 0 188 24">
  <path fill="#424668" fill-rule="evenodd" d="M40.596087 9.36318661C42.4468695 9.36318661 43.7260856 9.96089578 44.4609497 10.3684268 45.0869525 10.694453 45.1686034 11.2649938 44.8692104 11.8898713L44.8692104 11.8898713 44.597041 12.3789138C44.2704311 13.0309596 43.7533025 13.1124645 43.0728658 12.8136131 42.4740864 12.5419236 41.5759141 12.1343925 40.4327827 12.1343925 39.2352187 12.1343925 38.5547846 12.6234285 38.5547846 13.4928272 38.5547846 15.7750037 45.4407794 14.8784302 45.4407794 19.6057864 45.4407794 22.0509727 43.3722587 23.8712751 40.1606093 23.8712751 37.9287857 23.8712751 36.3773961 23.0290447 35.5336578 22.4585038 34.9076585 22.1053093 34.8532238 21.5076002 35.2614841 20.9098845L35.2614841 20.9098845 35.5880925 20.4208485C35.996353 19.8503077 36.4590483 19.7959711 37.1394818 20.1491655 37.792699 20.5023535 38.8269586 21.1000691 40.2422608 21.1000691 41.4398248 21.1000691 42.1746935 20.5566966 42.1746935 19.6872979 42.1746935 17.4322897 35.2887015 18.2745201 35.2887015 13.5199955 35.2887015 10.8031262 37.6838292 9.36318661 40.596087 9.36318661zM53.4154625 9.36318661C57.3619787 9.36318661 59.5665841 12.1615609 59.5665841 15.9651818 59.5665841 16.562891 59.0494556 17.1334383 58.3690253 17.1334383L58.3690253 17.1334383 49.9044241 17.1334383C50.1221597 19.6329548 51.9729447 20.9370593 54.0686823 20.9370593 55.3478985 20.9370593 56.4093725 20.4480168 57.0625923 20.0404858 57.7430225 19.7144662 58.2329341 19.7959711 58.5867609 20.4208485L58.5867609 20.4208485 58.9133708 20.9642276C59.2399807 21.5891051 59.1311064 22.1324777 58.532327 22.4856721 57.6341547 23.056213 56.0011117 23.8712751 53.8237233 23.8712751 49.2239873 23.8712751 46.3661687 20.5566966 46.3661687 16.6172276 46.3661687 12.3517455 49.2512043 9.36318661 53.4154625 9.36318661zM97.7923307 9.36318661C100.024153 9.36318661 101.521085 10.1782422 102.337659 10.7487896 102.909182 11.1291523 102.936432 11.6996932 102.555394 12.2974024L102.555394 12.2974024 102.201541 12.8407814C101.793255 13.4656589 101.330599 13.4656589 100.677392 13.1396328 100.105804 12.75927 99.1804146 12.2974024 97.9828558 12.2974024 95.4244236 12.2974024 93.7641637 14.2263844 93.7641637 16.5900593 93.7641637 18.9265724 95.4244236 20.9370593 98.0917236 20.9370593 99.4525906 20.9370593 100.541275 20.3393436 101.194482 19.877476 101.874938 19.4971132 102.392093 19.5786181 102.74588 20.2306704L102.74588 20.2306704 103.01805 20.7468747C103.344653 21.3445839 103.263035 21.8879629 102.718696 22.2683257 101.874938 22.8932031 100.187487 23.8712751 97.7923307 23.8712751 93.1926013 23.8712751 90.2531252 20.6382015 90.2531252 16.6172276 90.2531252 12.6777651 93.1926013 9.36318661 97.7923307 9.36318661zM110.938345 9.36318661C114.884835 9.36318661 117.08944 12.1615609 117.08944 15.9651818 117.08944 16.562891 116.572286 17.1334383 115.891895 17.1334383L115.891895 17.1334383 107.427261 17.1334383C107.644996 19.6329548 109.495814 20.9370593 111.591552 20.9370593 112.870781 20.9370593 113.932209 20.4480168 114.585416 20.0404858 115.265872 19.7144662 115.755777 19.7959711 116.10963 20.4208485L116.10963 20.4208485 116.436234 20.9642276C116.762837 21.5891051 116.653969 22.1324777 116.055196 22.4856721 115.157004 23.056213 113.523987 23.8712751 111.346566 23.8712751 106.74687 23.8712751 103.888992 20.5566966 103.888992 16.6172276 103.888992 12.3517455 106.774054 9.36318661 110.938345 9.36318661zM68.5755308 9.58053304C69.3376184 9.58053304 69.6097944 9.96089578 69.6097944 10.7216213L69.6097944 10.7216213 69.6097944 11.7811981C69.6097944 12.5147553 69.1743167 12.9222863 68.4394461 12.9222863 65.9082308 12.9222863 64.6834486 15.4218092 64.6834486 17.9485004L64.6834486 17.9485004 64.6834486 22.4041672C64.6834486 23.1648927 64.3024048 23.5452554 63.5675407 23.5452554L63.5675407 23.5452554 62.3699754 23.5452554C61.6351048 23.5452554 61.254061 23.1648927 61.254061 22.4041672L61.254061 22.4041672 61.254061 10.8302945C61.254061 10.0967373 61.6351048 9.68920625 62.3699754 9.68920625L62.3699754 9.68920625 63.4314494 9.68920625C64.1663201 9.68920625 64.5745808 10.0967373 64.5745808 10.8302945L64.5745808 10.8302945 64.5745808 12.1343925C64.5745808 12.6505968 64.4929299 13.0852962 64.4929299 13.0852962L64.4929299 13.0852962 64.5473638 13.0852962C65.0917093 11.4280037 66.6158845 9.58053304 68.5755308 9.58053304zM72.6979264 9.68920625C73.3511462 9.68920625 73.7866239 9.98806409 73.9771425 10.6401164L73.9771425 10.6401164 76.5627917 18.2745201C76.8349677 19.0895822 77.0799202 20.3665119 77.0799202 20.3665119L77.0799202 20.3665119 77.1343541 20.3665119C77.1343541 20.3665119 77.3520962 19.0895822 77.6242657 18.2745201L77.6242657 18.2745201 80.2099149 10.6401164C80.4004401 9.98806409 80.8359177 9.68920625 81.489131 9.68920625L81.489131 9.68920625 82.7683471 9.68920625C83.6120856 9.68920625 83.9659124 10.205417 83.6937429 10.9933043L83.6937429 10.9933043 79.5022677 22.6215136C79.2845256 23.2735659 78.8762649 23.5452554 78.2230516 23.5452554L78.2230516 23.5452554 76.0456632 23.5452554C75.3924434 23.5452554 74.9569657 23.2735659 74.766447 22.6215136L74.766447 22.6215136 70.5205379 10.9933043C70.2483619 10.205417 70.5749718 9.68920625 71.4187103 9.68920625L71.4187103 9.68920625zM87.3953 9.68920625C88.1301707 9.68920625 88.5112145 10.0967373 88.5112145 10.8302945L88.5112145 10.8302945 88.5112145 22.4041672C88.5112145 23.1648927 88.1301707 23.5452554 87.3953 23.5452554L87.3953 23.5452554 86.1977348 23.5452554C85.4628706 23.5452554 85.0818268 23.1648927 85.0818268 22.4041672L85.0818268 22.4041672 85.0818268 10.8302945C85.0818268 10.0967373 85.4628706 9.68920625 86.1977348 9.68920625L86.1977348 9.68920625zM53.3338117 11.9713827C54.9124208 11.9713827 56.0827626 13.1124645 56.1371965 15.0414465L49.9860749 15.0414465C50.3126848 13.1939694 51.564684 11.9713827 53.3338117 11.9713827zM87.3715123 5.0541022C88.106383 5.0541022 88.4874268 5.46163324 88.4874268 6.19519043L88.4874268 6.19519043 88.5118408 6.84191895C88.5118408 7.60264443 88.130797 7.98300718 87.3959264 7.98300718L87.3959264 7.98300718 86.1983611 7.98300718C85.463497 7.98300718 85.0824532 7.60264443 85.0824532 6.84191895L85.0824532 6.84191895 85.0580391 6.19519043C85.0580391 5.46163324 85.4390829 5.0541022 86.1739471 5.0541022L86.1739471 5.0541022zM132.303942 9.36318661C136.522667 9.36318661 139.952003 12.3789138 139.952003 16.6172276 139.952003 20.8827162 136.522667 23.8712751 132.303942 23.8712751 128.085283 23.8712751 124.683067 20.8827162 124.683067 16.6172276 124.683067 12.3789138 128.085283 9.36318661 132.303942 9.36318661zM121.06318 4.2554676C121.79807 4.2554676 122.179107 4.66299864 122.179107 5.39654934L122.179107 5.39654934 122.179107 18.9537407C122.179107 20.3121753 122.750631 20.5566966 123.267785 20.6110332 123.75769 20.6653698 124.111543 20.9642276 124.111543 21.5891051L124.111543 21.5891051 124.111543 22.5128404C124.111543 23.2192293 123.78494 23.6810969 122.968366 23.6810969 121.117614 23.6810969 118.749707 23.192061 118.749707 19.2254302L118.749707 19.2254302 118.749707 5.39654934C118.749707 4.66299864 119.130744 4.2554676 119.865634 4.2554676L119.865634 4.2554676zM110.856661 11.9713827C112.435244 11.9713827 113.605606 13.1124645 113.66004 15.0414465L107.508944 15.0414465C107.835548 13.1939694 109.087527 11.9713827 110.856661 11.9713827zM161.208798 9.36318661C165.155288 9.36318661 167.359893 12.1615609 167.359893 15.9651818 167.359893 16.562891 166.842804 17.1334383 166.162348 17.1334383L166.162348 17.1334383 157.697714 17.1334383C157.915449 19.6329548 159.766267 20.9370593 161.862005 20.9370593 163.141234 20.9370593 164.202662 20.4480168 164.855934 20.0404858 165.536325 19.7144662 166.02623 19.7959711 166.380083 20.4208485L166.380083 20.4208485 166.706687 20.9642276C167.03329 21.5891051 166.924422 22.1324777 166.325649 22.4856721 165.427457 23.056213 163.79444 23.8712751 161.617019 23.8712751 157.017323 23.8712751 154.15951 20.5566966 154.15951 16.6172276 154.15951 12.3517455 157.044507 9.36318661 161.208798 9.36318661zM142.619329 9.68920625C143.272536 9.68920625 143.708007 9.98806409 143.898558 10.6401164L143.898558 10.6401164 146.484201 18.2745201C146.75637 19.0895822 147.00129 20.3665119 147.00129 20.3665119L147.00129 20.3665119 147.055724 20.3665119C147.055724 20.3665119 147.273525 19.0895822 147.545694 18.2745201L147.545694 18.2745201 150.131337 10.6401164C150.321823 9.98806409 150.757294 9.68920625 151.410501 9.68920625L151.410501 9.68920625 152.68973 9.68920625C153.533488 9.68920625 153.887341 10.205417 153.615106 10.9933043L153.615106 10.9933043 149.423696 22.6215136C149.205896 23.2735659 148.797674 23.5452554 148.144467 23.5452554L148.144467 23.5452554 145.967046 23.5452554C145.313839 23.5452554 144.878368 23.2735659 144.687817 22.6215136L144.687817 22.6215136 140.441908 10.9933043C140.169738 10.205417 140.496342 9.68920625 141.3401 9.68920625L141.3401 9.68920625zM132.303942 12.2974024C134.562982 12.2974024 136.440984 14.0633746 136.440984 16.6172276 136.440984 19.1982554 134.562982 20.9370593 132.303942 20.9370593 130.044903 20.9370593 128.194151 19.1982554 128.194151 16.6172276 128.194151 14.0633746 130.044903 12.2974024 132.303942 12.2974024zM183.173168 9.36318661C185.023986 9.36318661 186.303215 9.96089578 187.03804 10.3684268 187.664063 10.694453 187.745681 11.2649938 187.446327 11.8898713L187.446327 11.8898713 187.174157 12.3789138C186.847554 13.0309596 186.330399 13.1124645 185.649943 12.8136131 185.05117 12.5419236 184.153044 12.1343925 183.009867 12.1343925 181.812321 12.1343925 181.131865 12.6234285 181.131865 13.4928272 181.131865 15.7750037 188.01785 14.8784302 188.01785 19.6057864 188.01785 22.0509727 185.949362 23.8712751 182.737697 23.8712751 180.505907 23.8712751 178.954509 23.0290447 178.110751 22.4585038 177.484793 22.1053093 177.43036 21.5076002 177.838581 20.9098845L177.838581 20.9098845 178.165185 20.4208485C178.573471 19.8503077 179.036127 19.7959711 179.716583 20.1491655 180.36979 20.5023535 181.404034 21.1000691 182.819381 21.1000691 184.016926 21.1000691 184.751816 20.5566966 184.751816 19.6872979 184.751816 17.4322897 177.865831 18.2745201 177.865831 13.5199955 177.865831 10.8031262 180.260922 9.36318661 183.173168 9.36318661zM176.368866 9.58053304C177.130941 9.58053304 177.40311 9.96089578 177.40311 10.7216213L177.40311 10.7216213 177.40311 11.7811981C177.40311 12.5147553 176.967639 12.9222863 176.232749 12.9222863 173.70154 12.9222863 172.476745 15.4218092 172.476745 17.9485004L172.476745 17.9485004 172.476745 22.4041672C172.476745 23.1648927 172.095707 23.5452554 171.360882 23.5452554L171.360882 23.5452554 170.163272 23.5452554C169.428446 23.5452554 169.047409 23.1648927 169.047409 22.4041672L169.047409 22.4041672 169.047409 10.8302945C169.047409 10.0967373 169.428446 9.68920625 170.163272 9.68920625L170.163272 9.68920625 171.224765 9.68920625C171.959655 9.68920625 172.367877 10.0967373 172.367877 10.8302945L172.367877 10.8302945 172.367877 12.1343925C172.367877 12.6505968 172.286259 13.0852962 172.286259 13.0852962L172.286259 13.0852962 172.340693 13.0852962C172.885032 11.4280037 174.409181 9.58053304 176.368866 9.58053304zM161.127114 11.9713827C162.705762 11.9713827 163.876059 13.1124645 163.930493 15.0414465L157.779397 15.0414465C158.106001 13.1939694 159.35798 11.9713827 161.127114 11.9713827zM24.0429801 11.9999905L24.0429801 24 12.0215034 24C5.38220829 24 0 18.6274191 0 11.9999905 0 5.37256184 5.38220829 0 12.0215034 0 18.6607986 0 24.0429801 5.37256184 24.0429801 11.9999905L24.0429801 11.9999905zM12.0214652 9.08672005C13.1408292 7.2495734 15.3795954 7.2495734 16.4989594 8.16814673 17.6184 9.08672005 17.6184 10.9238285 16.4989594 12.7609751 15.7154199 14.1387969 13.7005494 15.5166569 12.0214652 16.4351921 10.3424192 15.5166569 8.32754869 14.1387969 7.54397093 12.7609751 6.42460693 10.9238285 6.42460693 9.08672005 7.54397093 8.16814673 8.66337319 7.2495734 10.9021012 7.2495734 12.0214652 9.08672005L12.0214652 9.08672005z"/>
</svg>
